STARTFONT 2.1
COMMENT 
COMMENT This file has been produced by ttf2bdf written by Subhabrata Biswas
COMMENT 
COMMENT For comments, questions, bug reports, send a mail to
COMMENT                                           subhabrata.biswas@usa.net
COMMENT 
FONT -*-Gotham Black-Medium-R-Normal--48-360-96-96-c-25--fontspecific
SIZE 36 96 96
FONTBOUNDINGBOX 64 54 -4 -8
STARTPROPERTIES 15
FOUNDRY "Misc"
FAMILY_NAME "Gotham Black"
WEIGHT_NAME "Medium"
SLANT "R"
SETWIDTH_NAME "Normal"
PIXEL_SIZE 27
POINT_SIZE 360
RESOLUTION_X 96
RESOLUTION_Y 96
SPACING "C"
CHARSET_ENCODING "fontspecific"
FONT_ASCENT 45
FONT_DESCENT 9
DEFAULT_CHAR 31
COPYRIGHT "You may wish to put your copyright here"
ENDPROPERTIES
CHARS 226
STARTCHAR C0030
ENCODING 30
SWIDTH 500 0
DWIDTH 24 0
BBX 1 1 0 -1
BITMAP
00
ENDCHAR
STARTCHAR C0031
ENCODING 31
SWIDTH 500 0
DWIDTH 24 0
BBX 1 1 0 -1
BITMAP
00
ENDCHAR
STARTCHAR C0032- 
ENCODING 32
SWIDTH 270 0
DWIDTH 13 0
BBX 1 1 0 -1
BITMAP
00
ENDCHAR
STARTCHAR C0033-!
ENCODING 33
SWIDTH 333 0
DWIDTH 16 0
BBX 10 34 3 0
BITMAP
FFC0
FFC0
FFC0
FFC0
FFC0
FFC0
FFC0
FF80
FF80
FF80
7F80
7F80
7F80
7F80
7F00
7F00
7F00
3F00
3F00
3F00
3E00
3E00
3E00
0000
0000
0000
FFC0
FFC0
FFC0
FFC0
FFC0
FFC0
FFC0
FFC0
ENDCHAR
STARTCHAR C0034-"
ENCODING 34
SWIDTH 541 0
DWIDTH 26 0
BBX 23 18 2 16
BITMAP
7FC7FE
7FC7FC
7FC7FC
FF87FC
FF87F8
FF87F8
FF07F8
FF07F0
FF07F0
FE0FF0
FE0FE0
FE0FE0
FC0FE0
FC0FC0
FC0FC0
F80FC0
F80F80
F80F80
ENDCHAR
STARTCHAR C0035-#
ENCODING 35
SWIDTH 708 0
DWIDTH 34 0
BBX 31 34 1 0
BITMAP
007F03F8
007F03F8
00FE07F0
00FE07F0
00FE07F0
00FE07F0
00FE07F0
3FFFFFFE
3FFFFFFE
3FFFFFFE
3FFFFFFE
3FFFFFFE
3FFFFFFE
3FFFFFFE
3FFFFFFE
03F81FC0
03F81FC0
03F81FC0
03F81FC0
03F01FC0
FFFFFFFC
FFFFFFFC
FFFFFFFC
FFFFFFFC
FFFFFFFC
FFFFFFFC
FFFFFFFC
FFFFFFFC
0FE07F00
0FE07F00
0FE07F00
1FC07E00
1FC0FE00
1FC0FE00
ENDCHAR
STARTCHAR C0036-$
ENCODING 36
SWIDTH 666 0
DWIDTH 32 0
BBX 30 41 1 -5
BITMAP
0007C000
0007C000
0007C000
007FF800
01FFFF00
07FFFFC0
0FFFFFF0
0FFFFFF0
1FFFFFE0
1FFFFFC0
3FE7DFC0
3FE7C380
3FE7C180
3FE7C000
3FF7C000
3FFFC000
1FFFF800
1FFFFF00
0FFFFFC0
07FFFFE0
03FFFFF0
00FFFFF8
003FFFF8
0007FFFC
0007DFFC
0807C7FC
1E07C7FC
1F07C7FC
3FE7CFFC
7FFFFFF8
7FFFFFF8
FFFFFFF0
3FFFFFF0
1FFFFFC0
03FFFF80
007FFC00
0007C000
0007C000
0007C000
0007C000
0007C000
ENDCHAR
STARTCHAR C0037-%
ENCODING 37
SWIDTH 895 0
DWIDTH 43 0
BBX 40 34 2 0
BITMAP
03E00007F0
0FF80007E0
3FFE000FE0
3FFE001FC0
7FFF003F80
7E3F007F00
FC3F807F00
FC1F80FE00
FC1F81FC00
FC1F83F800
FC1F83F000
FE1F87F000
7E3F0FE000
7FFF1FC000
3FFE1F8000
3FFE3F8000
0FF87F0000
07E0FE0FC0
0001FC3FF0
0001F8FFFC
0003F8FFFC
0007F1FFFE
000FE1F87E
000FC3F03F
001FC3F03F
003F83F03F
007F03F03F
00FE03F83F
00FE01F87E
01FC01FFFE
03F800FFFC
07F000FFF8
07E0003FF0
0FE0000FC0
ENDCHAR
STARTCHAR C0038-&
ENCODING 38
SWIDTH 708 0
DWIDTH 34 0
BBX 32 34 1 0
BITMAP
000FE000
007FF800
00FFFC00
01FFFE00
03FFFF00
03FFFF00
07FFFF80
07FC7F80
07F83F80
07F83F80
07F83F80
07F83F00
03FC7F00
03FDFE00
01FFFC00
01FFF840
07FFF070
1FFFE0FC
3FFFF0FF
7FFFF9FE
7FEFFDFE
FFC7FFFC
FF83FFF8
FF81FFF8
FF80FFF0
FFC07FF0
FFE1FFF8
FFFFFFFC
7FFFFFFE
3FFFFFFF
3FFFFFFE
1FFFF9F8
07FFE0F0
00FF0040
ENDCHAR
STARTCHAR C0039-'
ENCODING 39
SWIDTH 291 0
DWIDTH 14 0
BBX 11 18 2 16
BITMAP
7FE0
7FC0
7FC0
FF80
FF80
FF80
FF00
FF00
FF00
FE00
FE00
FE00
FC00
FC00
FC00
F800
F800
F800
ENDCHAR
STARTCHAR C0040-(
ENCODING 40
SWIDTH 437 0
DWIDTH 21 0
BBX 18 41 2 -7
BITMAP
000400
001E00
003F00
007F00
01FF80
03FFC0
07FF80
0FFE00
0FFC00
1FF800
3FF000
3FF000
7FE000
7FC000
7FC000
7FC000
FF8000
FF8000
FF8000
FF8000
FF8000
FF8000
FF8000
FF8000
FF8000
7FC000
7FC000
7FC000
7FE000
3FF000
3FF000
1FF800
0FFC00
0FFE00
07FF80
03FFC0
01FF80
007F00
003F00
001E00
000400
ENDCHAR
STARTCHAR C0041-)
ENCODING 41
SWIDTH 437 0
DWIDTH 21 0
BBX 18 41 1 -7
BITMAP
080000
1E0000
3F0000
3F8000
7FE000
FFF000
7FF800
1FFC00
0FFC00
07FE00
03FF00
03FF00
01FF80
00FF80
00FF80
00FF80
007FC0
007FC0
007FC0
007FC0
007FC0
007FC0
007FC0
007FC0
007FC0
00FF80
00FF80
00FF80
01FF80
03FF00
03FF00
07FE00
0FFC00
1FFC00
7FF800
FFF000
7FE000
3F8000
3F0000
1E0000
080000
ENDCHAR
STARTCHAR C0042-*
ENCODING 42
SWIDTH 416 0
DWIDTH 20 0
BBX 18 18 1 16
BITMAP
01F000
01E000
21E100
31E300
38E780
7EEF80
7FFFC0
BFFF00
07F800
07F800
3FFF00
FFFFC0
7EEF80
38E780
31E300
21E100
01E000
01F000
ENDCHAR
STARTCHAR C0043-+
ENCODING 43
SWIDTH 645 0
DWIDTH 31 0
BBX 25 24 3 5
BITMAP
00FF8000
00FF8000
00FF8000
00FF8000
00FF8000
00FF8000
00FF8000
00FF8000
FFFFFF80
FFFFFF80
FFFFFF80
FFFFFF80
FFFFFF80
FFFFFF80
FFFFFF80
FFFFFF80
00FF8000
00FF8000
00FF8000
00FF8000
00FF8000
00FF8000
00FF8000
00FF8000
ENDCHAR
STARTCHAR C0044-,
ENCODING 44
SWIDTH 291 0
DWIDTH 14 0
BBX 11 17 1 -8
BITMAP
7FE0
7FE0
7FE0
7FE0
7FE0
7FE0
7FE0
7FE0
7FE0
07E0
07E0
0FC0
1FC0
FF80
FF80
7E00
7800
ENDCHAR
STARTCHAR C0045--
ENCODING 45
SWIDTH 416 0
DWIDTH 20 0
BBX 16 8 2 11
BITMAP
FFFF
FFFF
FFFF
FFFF
FFFF
FFFF
FFFF
FFFF
ENDCHAR
STARTCHAR C0046-.
ENCODING 46
SWIDTH 291 0
DWIDTH 14 0
BBX 10 9 2 0
BITMAP
FFC0
FFC0
FFC0
FFC0
FFC0
FFC0
FFC0
FFC0
FFC0
ENDCHAR
STARTCHAR C0047-/
ENCODING 47
SWIDTH 541 0
DWIDTH 26 0
BBX 29 44 -2 -6
BITMAP
000007F8
000007F0
00000FF0
00000FE0
00001FE0
00001FC0
00003FC0
00003F80
00007F80
00007F00
0000FF00
0000FE00
0001FE00
0001FC00
0003FC00
0003F800
0007F800
0007F000
000FF000
000FE000
000FE000
001FC000
001FC000
003F8000
003F8000
007F8000
007F0000
00FF0000
00FE0000
01FE0000
01FC0000
03FC0000
03F80000
07F80000
07F00000
0FF00000
0FE00000
1FE00000
1FC00000
3FC00000
3F800000
7F800000
7F000000
FF000000
ENDCHAR
STARTCHAR C0048-0
ENCODING 48
SWIDTH 729 0
DWIDTH 35 0
BBX 31 34 2 0
BITMAP
001FF000
007FFC00
01FFFF00
03FFFF80
07FFFFC0
0FFFFFE0
1FFFFFF0
3FFFFFF8
3FF87FF8
7FF01FFC
7FE01FFC
7FE00FFC
7FE00FFE
FFC007FE
FFC007FE
FFC007FE
FFC007FE
FFC007FE
FFC007FE
FFC007FE
FFC007FE
FFE00FFE
7FE00FFC
7FF00FFC
7FF01FFC
3FFC3FF8
3FFFFFF8
1FFFFFF0
0FFFFFE0
07FFFFC0
03FFFF80
01FFFF00
007FFC00
001FF000
ENDCHAR
STARTCHAR C0049-1
ENCODING 49
SWIDTH 416 0
DWIDTH 20 0
BBX 16 34 1 0
BITMAP
00FF
0FFF
7FFF
FFFF
FFFF
FFFF
FFFF
7FFF
7FFF
71FF
01FF
01FF
01FF
01FF
01FF
01FF
01FF
01FF
01FF
01FF
01FF
01FF
01FF
01FF
01FF
01FF
01FF
01FF
01FF
01FF
01FF
01FF
01FF
01FF
ENDCHAR
STARTCHAR C0050-2
ENCODING 50
SWIDTH 625 0
DWIDTH 30 0
BBX 27 34 1 0
BITMAP
007FC000
01FFF800
07FFFE00
0FFFFF00
1FFFFF80
3FFFFFC0
7FFFFFC0
FFFFFFE0
3FE1FFE0
1F80FFE0
0F007FE0
02007FE0
00007FE0
0000FFE0
0000FFC0
0001FFC0
0003FF80
0007FF80
001FFF00
003FFE00
007FF800
01FFF000
03FFE000
07FF8000
1FFF0000
3FFC0000
7FFFFFE0
FFFFFFE0
FFFFFFE0
FFFFFFE0
FFFFFFE0
FFFFFFE0
FFFFFFE0
FFFFFFE0
ENDCHAR
STARTCHAR C0051-3
ENCODING 51
SWIDTH 625 0
DWIDTH 30 0
BBX 27 34 1 0
BITMAP
3FFFFFC0
3FFFFFC0
3FFFFFC0
3FFFFFC0
3FFFFFC0
3FFFFFC0
3FFFFFC0
3FFFFF80
0003FF00
0007FE00
000FFC00
001FF800
003FE000
007FE000
01FFFC00
01FFFE00
00FFFF80
00FFFF80
00FFFFC0
0001FFE0
00007FE0
00003FE0
04003FE0
0E003FE0
1F807FE0
3FE0FFE0
7FFFFFC0
FFFFFFC0
FFFFFF80
7FFFFF80
1FFFFF00
0FFFFE00
03FFF800
007FC000
ENDCHAR
STARTCHAR C0052-4
ENCODING 52
SWIDTH 687 0
DWIDTH 33 0
BBX 31 34 0 0
BITMAP
00007FE0
0000FFE0
0000FFE0
0001FFE0
0003FFE0
0007FFE0
000FFFE0
001FFFE0
001FFFE0
003FFFE0
007FFFE0
00FFFFE0
01FFBFE0
01FF3FE0
03FE3FE0
07FE3FE0
0FFC3FE0
1FF83FE0
3FF03FE0
3FE03FE0
7FC03FE0
FFFFFFFE
FFFFFFFE
7FFFFFFE
7FFFFFFE
7FFFFFFE
7FFFFFFE
3FFFFFFE
00003FE0
00003FE0
00003FE0
00003FE0
00003FE0
00003FE0
ENDCHAR
STARTCHAR C0053-5
ENCODING 53
SWIDTH 625 0
DWIDTH 30 0
BBX 27 34 1 0
BITMAP
1FFFFFC0
1FFFFFC0
1FFFFFC0
1FFFFFC0
1FFFFFC0
1FFFFFC0
1FFFFFC0
1FFFFFC0
1FC00000
1FC00000
1FC00000
3FC00000
3FCFE000
3FFFFC00
3FFFFF00
3FFFFF80
3FFFFF80
3FFFFFC0
0FFFFFC0
03C0FFE0
01007FE0
00003FE0
08003FE0
0C003FE0
1F007FE0
3FC0FFE0
7FFFFFC0
7FFFFFC0
FFFFFF80
7FFFFF80
3FFFFF00
1FFFFC00
07FFF800
00FFC000
ENDCHAR
STARTCHAR C0054-6
ENCODING 54
SWIDTH 666 0
DWIDTH 32 0
BBX 28 34 2 0
BITMAP
001FF000
00FFFE00
03FFFF00
07FFFFC0
0FFFFFC0
1FFFFF80
1FFFFF80
3FFFFF00
3FF83E00
7FE00E00
7FC00400
7FC00000
7F87F000
FF9FFE00
FFFFFF00
FFFFFF80
FFFFFFC0
FFFFFFE0
FFFFFFE0
FFE07FF0
FFC03FF0
FF801FF0
FF801FF0
7F801FF0
7F801FF0
7FC03FF0
3FE07FE0
3FFFFFE0
1FFFFFC0
1FFFFF80
0FFFFF00
03FFFE00
01FFF800
003FE000
ENDCHAR
STARTCHAR C0055-7
ENCODING 55
SWIDTH 604 0
DWIDTH 29 0
BBX 26 34 2 0
BITMAP
FFFFFFC0
FFFFFFC0
FFFFFFC0
FFFFFFC0
FFFFFFC0
FFFFFFC0
FFFFFFC0
FFFFFFC0
0001FF80
0001FF80
0003FF00
0003FF00
0007FE00
0007FE00
000FFC00
001FF800
001FF800
003FF000
003FF000
007FE000
007FE000
00FFC000
00FFC000
01FF8000
03FF0000
03FF0000
07FE0000
07FE0000
0FFC0000
0FFC0000
1FF80000
3FF80000
3FF00000
7FF00000
ENDCHAR
STARTCHAR C0056-8
ENCODING 56
SWIDTH 625 0
DWIDTH 30 0
BBX 28 34 1 0
BITMAP
007FE000
01FFF800
07FFFE00
0FFFFF00
1FFFFF80
3FFFFFC0
3FFFFFC0
7FF0FFE0
7FE07FE0
7FC03FE0
7FC03FE0
7FC03FE0
7FE07FE0
3FF0FFC0
1FFFFF80
0FFFFF00
07FFFE00
07FFFE00
1FFFFF80
3FFFFFC0
7FFFFFE0
7FE07FE0
FFC03FF0
FF801FF0
FF801FF0
FFC03FF0
FFE07FF0
7FFFFFE0
7FFFFFE0
3FFFFFC0
1FFFFF80
0FFFFF00
03FFFC00
007FE000
ENDCHAR
STARTCHAR C0057-9
ENCODING 57
SWIDTH 666 0
DWIDTH 32 0
BBX 28 34 2 0
BITMAP
007FC000
01FFF800
07FFFC00
0FFFFF00
1FFFFF80
3FFFFF80
7FFFFFC0
7FE0FFC0
7FC03FE0
FF801FE0
FF801FE0
FF801FF0
FF801FF0
FF801FF0
FFC03FF0
FFF07FF0
7FFFFFF0
7FFFFFF0
3FFFFFF0
1FFFFFF0
0FFFFFF0
07FF9FE0
00FE3FE0
04003FE0
06007FE0
0F81FFC0
1FFFFFC0
1FFFFF80
3FFFFF80
7FFFFF00
3FFFFE00
1FFFFC00
07FFF000
00FF8000
ENDCHAR
STARTCHAR C0058-:
ENCODING 58
SWIDTH 291 0
DWIDTH 14 0
BBX 10 26 2 0
BITMAP
FFC0
FFC0
FFC0
FFC0
FFC0
FFC0
FFC0
FFC0
FFC0
0000
0000
0000
0000
0000
0000
0000
0000
FFC0
FFC0
FFC0
FFC0
FFC0
FFC0
FFC0
FFC0
FFC0
ENDCHAR
STARTCHAR C0059-;
ENCODING 59
SWIDTH 291 0
DWIDTH 14 0
BBX 11 34 1 -8
BITMAP
7FE0
7FE0
7FE0
7FE0
7FE0
7FE0
7FE0
7FE0
7FE0
0000
0000
0000
0000
0000
0000
0000
0000
7FE0
7FE0
7FE0
7FE0
7FE0
7FE0
7FE0
7FE0
7FE0
07E0
07E0
0FC0
1FC0
FF80
FF80
7E00
7800
ENDCHAR
STARTCHAR C0060-<
ENCODING 60
SWIDTH 645 0
DWIDTH 31 0
BBX 24 28 3 3
BITMAP
000001
00000F
00003F
0001FF
0007FF
003FFF
00FFFF
07FFFF
1FFFFF
7FFFF8
FFFFC0
FFFF00
FFF800
FFC000
FFC000
FFF800
FFFF00
FFFFE0
7FFFFC
1FFFFF
07FFFF
00FFFF
003FFF
0007FF
0001FF
00003F
00000F
000001
ENDCHAR
STARTCHAR C0061-=
ENCODING 61
SWIDTH 645 0
DWIDTH 31 0
BBX 23 21 4 6
BITMAP
FFFFFE
FFFFFE
FFFFFE
FFFFFE
FFFFFE
FFFFFE
FFFFFE
FFFFFE
000000
000000
000000
000000
000000
FFFFFE
FFFFFE
FFFFFE
FFFFFE
FFFFFE
FFFFFE
FFFFFE
FFFFFE
ENDCHAR
STARTCHAR C0062->
ENCODING 62
SWIDTH 645 0
DWIDTH 31 0
BBX 24 28 4 3
BITMAP
800000
F00000
FC0000
FF8000
FFE000
FFFC00
FFFF00
FFFFC0
FFFFF8
3FFFFE
07FFFF
00FFFF
001FFF
0003FF
0003FF
001FFF
00FFFF
07FFFF
3FFFFE
FFFFF8
FFFFC0
FFFF00
FFFC00
FFE000
FF8000
FC0000
F00000
800000
ENDCHAR
STARTCHAR C0063-?
ENCODING 63
SWIDTH 541 0
DWIDTH 26 0
BBX 24 34 1 0
BITMAP
01FF00
07FFE0
1FFFF0
7FFFFC
FFFFFC
FFFFFE
7FFFFE
3FFFFF
3F83FF
1E01FF
0801FF
0001FF
0003FF
0007FE
00FFFE
01FFFC
00FFFC
00FFF8
00FFE0
00FF00
00FE00
00FE00
007E00
000000
000000
000000
03FF00
03FF00
03FF00
03FF00
03FF00
03FF00
03FF00
03FF00
ENDCHAR
STARTCHAR C0064-@
ENCODING 64
SWIDTH 958 0
DWIDTH 46 0
BBX 42 42 2 -8
BITMAP
0000FFC00000
0007FFFC0000
001F803F0000
007C00078000
00E00001E000
01C000007000
038000003800
070000001C00
0E0000000E00
1C00FC000600
1803FE3C0300
3007FF3F8300
300FFFFF8180
601FFFFF8180
601FFFFF81C0
603FFFFF80C0
E03FE1FF00C0
C03FC0FF00C0
C07F80FF00C0
C07F80FF00C0
C07F80FF00C0
C07F80FE00C0
C07F81FE00C0
C07FC3FE0180
C07FFFFE0180
C03FFFFE0300
603FFFFE0300
601FFFFF0E00
600FFE7FFC00
3007FC3FF800
3003F00FE000
180000000000
1C0000000000
0C0000000000
060000000000
030000000000
01C000000000
00E00000C000
00780003C000
001F803F0000
0007FFFC0000
0000FFC00000
ENDCHAR
STARTCHAR C0065-A
ENCODING 65
SWIDTH 791 0
DWIDTH 38 0
BBX 38 34 0 0
BITMAP
0003FF0000
0003FF0000
0003FF8000
0007FF8000
0007FF8000
000FFFC000
000FFFC000
001FFFE000
001FFFE000
001FFFF000
003FFFF000
003FFFF000
007FFFF800
007FCFF800
00FFCFFC00
00FF87FC00
00FF87FE00
01FF87FE00
01FF03FE00
03FF03FF00
03FE01FF00
03FFFFFF80
07FFFFFF80
07FFFFFF80
0FFFFFFFC0
0FFFFFFFC0
1FFFFFFFE0
1FFFFFFFE0
1FF0003FF0
3FF0003FF0
3FE0003FF0
7FE0001FF8
7FE0001FF8
FFC0000FFC
ENDCHAR
STARTCHAR C0066-B
ENCODING 66
SWIDTH 708 0
DWIDTH 34 0
BBX 30 34 3 0
BITMAP
FFFFF800
FFFFFF00
FFFFFF80
FFFFFFC0
FFFFFFE0
FFFFFFE0
FFFFFFF0
FFFFFFF0
FF803FF0
FF801FF0
FF801FF0
FF801FF0
FF801FE0
FF807FE0
FFFFFFC0
FFFFFF80
FFFFFF00
FFFFFF80
FFFFFFE0
FFFFFFF0
FFFFFFF8
FF800FF8
FF8007FC
FF8007FC
FF8007FC
FF800FFC
FFFFFFFC
FFFFFFFC
FFFFFFF8
FFFFFFF8
FFFFFFF0
FFFFFFE0
FFFFFF80
FFFFFC00
ENDCHAR
STARTCHAR C0067-C
ENCODING 67
SWIDTH 729 0
DWIDTH 35 0
BBX 33 34 2 0
BITMAP
0003FE0000
001FFFC000
007FFFF000
01FFFFF800
03FFFFFC00
07FFFFFE00
0FFFFFFF00
1FFFFFFE00
3FFE07FC00
3FF801F800
7FF000E000
7FF0004000
7FE0000000
FFE0000000
FFC0000000
FFC0000000
FFC0000000
FFC0000000
FFC0000000
FFC0000000
FFE0000000
7FE0000000
7FF0004000
7FF000F000
3FF801F800
3FFE07FE00
1FFFFFFF00
0FFFFFFF80
07FFFFFE00
03FFFFFC00
01FFFFF800
00FFFFF000
003FFFC000
0007FE0000
ENDCHAR
STARTCHAR C0068-D
ENCODING 68
SWIDTH 770 0
DWIDTH 37 0
BBX 32 34 3 0
BITMAP
FFFFC000
FFFFFC00
FFFFFF00
FFFFFFC0
FFFFFFE0
FFFFFFF0
FFFFFFF8
FFFFFFF8
FF80FFFC
FF803FFE
FF800FFE
FF800FFE
FF8007FF
FF8007FF
FF8003FF
FF8003FF
FF8003FF
FF8003FF
FF8003FF
FF8003FF
FF8007FF
FF8007FE
FF800FFE
FF800FFE
FF803FFC
FF80FFFC
FFFFFFF8
FFFFFFF0
FFFFFFF0
FFFFFFE0
FFFFFF80
FFFFFF00
FFFFF800
FFFFC000
ENDCHAR
STARTCHAR C0069-E
ENCODING 69
SWIDTH 666 0
DWIDTH 32 0
BBX 27 34 3 0
BITMAP
FFFFFFE0
FFFFFFE0
FFFFFFE0
FFFFFFE0
FFFFFFE0
FFFFFFE0
FFFFFFE0
FFFFFFE0
FF800000
FF800000
FF800000
FF800000
FF800000
FF800000
FFFFFF80
FFFFFF80
FFFFFF80
FFFFFF80
FFFFFF80
FFFFFF80
FFFFFF80
FF800000
FF800000
FF800000
FF800000
FF800000
FFFFFFE0
FFFFFFE0
FFFFFFE0
FFFFFFE0
FFFFFFE0
FFFFFFE0
FFFFFFE0
FFFFFFE0
ENDCHAR
STARTCHAR C0070-F
ENCODING 70
SWIDTH 645 0
DWIDTH 31 0
BBX 27 34 3 0
BITMAP
FFFFFFE0
FFFFFFE0
FFFFFFE0
FFFFFFE0
FFFFFFE0
FFFFFFE0
FFFFFFE0
FFFFFFE0
FF800000
FF800000
FF800000
FF800000
FF800000
FF800000
FFFFFF80
FFFFFF80
FFFFFF80
FFFFFF80
FFFFFF80
FFFFFF80
FFFFFF80
FFFFFF80
FF800000
FF800000
FF800000
FF800000
FF800000
FF800000
FF800000
FF800000
FF800000
FF800000
FF800000
FF800000
ENDCHAR
STARTCHAR C0071-G
ENCODING 71
SWIDTH 770 0
DWIDTH 37 0
BBX 33 34 2 0
BITMAP
0003FF0000
001FFFE000
007FFFF800
01FFFFFE00
03FFFFFF00
07FFFFFF00
0FFFFFFE00
1FFFFFFC00
3FFF03F800
3FFC00F000
7FF8002000
7FF0000000
7FE0000000
FFE0000000
FFC07FFF80
FFC07FFF80
FFC07FFF80
FFC07FFF80
FFC07FFF80
FFC07FFF80
FFE07FFF80
7FE000FF80
7FF000FF80
7FF800FF80
3FFC00FF80
3FFF03FF80
1FFFFFFF80
0FFFFFFF80
0FFFFFFF80
07FFFFFF00
01FFFFFE00
00FFFFF800
003FFFE000
0003FE0000
ENDCHAR
STARTCHAR C0072-H
ENCODING 72
SWIDTH 770 0
DWIDTH 37 0
BBX 31 34 3 0
BITMAP
FF8003FE
FF8003FE
FF8003FE
FF8003FE
FF8003FE
FF8003FE
FF8003FE
FF8003FE
FF8003FE
FF8003FE
FF8003FE
FF8003FE
FF8003FE
FFFFFFFE
FFFFFFFE
FFFFFFFE
FFFFFFFE
FFFFFFFE
FFFFFFFE
FFFFFFFE
FFFFFFFE
FF8003FE
FF8003FE
FF8003FE
FF8003FE
FF8003FE
FF8003FE
FF8003FE
FF8003FE
FF8003FE
FF8003FE
FF8003FE
FF8003FE
FF8003FE
ENDCHAR
STARTCHAR C0073-I
ENCODING 73
SWIDTH 333 0
DWIDTH 16 0
BBX 10 34 3 0
BITMAP
FFC0
FFC0
FFC0
FFC0
FFC0
FFC0
FFC0
FFC0
FFC0
FFC0
FFC0
FFC0
FFC0
FFC0
FFC0
FFC0
FFC0
FFC0
FFC0
FFC0
FFC0
FFC0
FFC0
FFC0
FFC0
FFC0
FFC0
FFC0
FFC0
FFC0
FFC0
FFC0
FFC0
FFC0
ENDCHAR
STARTCHAR C0074-J
ENCODING 74
SWIDTH 562 0
DWIDTH 27 0
BBX 24 34 0 0
BITMAP
0001FF
0001FF
0001FF
0001FF
0001FF
0001FF
0001FF
0001FF
0001FF
0001FF
0001FF
0001FF
0001FF
0001FF
0001FF
0001FF
0001FF
0001FF
0001FF
0001FF
0001FF
0001FF
0001FF
0401FF
0F03FF
1F87FF
3FFFFE
7FFFFE
FFFFFC
7FFFFC
3FFFF8
1FFFF0
07FFC0
01FF00
ENDCHAR
STARTCHAR C0075-K
ENCODING 75
SWIDTH 729 0
DWIDTH 35 0
BBX 32 34 3 0
BITMAP
FF800FFF
FF801FFC
FF803FF8
FF803FF8
FF807FF0
FF80FFE0
FF81FFC0
FF83FF80
FF87FF00
FF87FE00
FF8FFC00
FF9FFC00
FFBFF800
FFFFF000
FFFFE000
FFFFE000
FFFFF000
FFFFF800
FFFFFC00
FFFFFC00
FFFFFE00
FFFFFF00
FFF7FF00
FFE3FF80
FFC3FFC0
FF81FFC0
FF80FFE0
FF80FFF0
FF807FF0
FF803FF8
FF803FFC
FF801FFC
FF800FFE
FF8007FF
ENDCHAR
STARTCHAR C0076-L
ENCODING 76
SWIDTH 625 0
DWIDTH 30 0
BBX 25 34 3 0
BITMAP
FF800000
FF800000
FF800000
FF800000
FF800000
FF800000
FF800000
FF800000
FF800000
FF800000
FF800000
FF800000
FF800000
FF800000
FF800000
FF800000
FF800000
FF800000
FF800000
FF800000
FF800000
FF800000
FF800000
FF800000
FF800000
FF800000
FFFFFF80
FFFFFF80
FFFFFF80
FFFFFF80
FFFFFF80
FFFFFF80
FFFFFF80
FFFFFF80
ENDCHAR
STARTCHAR C0077-M
ENCODING 77
SWIDTH 875 0
DWIDTH 42 0
BBX 36 34 3 0
BITMAP
FFC0003FF0
FFE0007FF0
FFE0007FF0
FFF000FFF0
FFF801FFF0
FFF801FFF0
FFFC03FFF0
FFFE07FFF0
FFFE07FFF0
FFFF0FFFF0
FFFF0FFFF0
FFFF9FFFF0
FFFFFFFFF0
FFFFFFFFF0
FFFFFFFFF0
FFBFFFDFF0
FFBFFFDFF0
FF9FFF9FF0
FF8FFF1FF0
FF8FFF1FF0
FF87FE1FF0
FF83FC1FF0
FF83FC1FF0
FF81F81FF0
FF80F01FF0
FF80F01FF0
FF80601FF0
FF80401FF0
FF80001FF0
FF80001FF0
FF80001FF0
FF80001FF0
FF80001FF0
FF80001FF0
ENDCHAR
STARTCHAR C0078-N
ENCODING 78
SWIDTH 791 0
DWIDTH 38 0
BBX 32 34 3 0
BITMAP
FF8001FF
FFC001FF
FFE001FF
FFF001FF
FFF001FF
FFF801FF
FFFC01FF
FFFE01FF
FFFF01FF
FFFF01FF
FFFF81FF
FFFFC1FF
FFFFE1FF
FFFFE1FF
FFFFF1FF
FFFFF9FF
FFBFFDFF
FF9FFFFF
FF9FFFFF
FF8FFFFF
FF87FFFF
FF83FFFF
FF81FFFF
FF81FFFF
FF80FFFF
FF807FFF
FF803FFF
FF801FFF
FF801FFF
FF800FFF
FF8007FF
FF8003FF
FF8003FF
FF8001FF
ENDCHAR
STARTCHAR C0079-O
ENCODING 79
SWIDTH 833 0
DWIDTH 40 0
BBX 36 34 2 0
BITMAP
0003FE0000
003FFFC000
00FFFFF000
01FFFFF800
03FFFFFC00
07FFFFFE00
0FFFFFFF00
1FFFFFFF80
3FFE07FFC0
3FF803FFC0
7FF000FFE0
7FF000FFE0
7FE0007FE0
FFE0007FF0
FFC0003FF0
FFC0003FF0
FFC0003FF0
FFC0003FF0
FFC0003FF0
FFC0003FF0
FFE0007FF0
7FE0007FE0
7FF000FFE0
7FF000FFE0
3FFC01FFC0
3FFE07FFC0
1FFFFFFF80
0FFFFFFF00
07FFFFFE00
03FFFFFC00
01FFFFF800
00FFFFF000
003FFFC000
0007FC0000
ENDCHAR
STARTCHAR C0080-P
ENCODING 80
SWIDTH 666 0
DWIDTH 32 0
BBX 28 34 3 0
BITMAP
FFFFE000
FFFFFC00
FFFFFE00
FFFFFF80
FFFFFFC0
FFFFFFC0
FFFFFFE0
FFFFFFE0
FF80FFF0
FF803FF0
FF801FF0
FF801FF0
FF801FF0
FF801FF0
FF801FF0
FF803FF0
FF80FFE0
FFFFFFE0
FFFFFFC0
FFFFFF80
FFFFFF00
FFFFFE00
FFFFF800
FFFFC000
FF800000
FF800000
FF800000
FF800000
FF800000
FF800000
FF800000
FF800000
FF800000
FF800000
ENDCHAR
STARTCHAR C0081-Q
ENCODING 81
SWIDTH 833 0
DWIDTH 40 0
BBX 36 35 2 -1
BITMAP
0003FE0000
001FFFC000
007FFFF000
01FFFFF800
03FFFFFC00
07FFFFFE00
0FFFFFFF00
1FFFFFFF80
3FFE07FFC0
3FFC03FFC0
7FF001FFE0
7FF000FFE0
7FE0007FE0
FFE0007FF0
FFC0003FF0
FFC0003FF0
FFC0003FF0
FFC0043FF0
FFC00F3FF0
FFC01FBFF0
FFC03FFFF0
FFE07FFFE0
7FE07FFFE0
7FF01FFFE0
7FF80FFFC0
3FFC07FFC0
3FFE0FFF80
1FFFFFFFC0
0FFFFFFFE0
07FFFFFFF0
03FFFFFFF0
01FFFFFFE0
007FFFE7C0
001FFF8380
0007FC0100
ENDCHAR
STARTCHAR C0082-R
ENCODING 82
SWIDTH 729 0
DWIDTH 35 0
BBX 31 34 3 0
BITMAP
FFFFF800
FFFFFF00
FFFFFFC0
FFFFFFE0
FFFFFFF0
FFFFFFF0
FFFFFFF8
FFFFFFF8
FF803FFC
FF801FFC
FF800FFC
FF800FFC
FF800FFC
FF800FFC
FF800FFC
FF801FF8
FF803FF8
FFFFFFF8
FFFFFFF0
FFFFFFE0
FFFFFFC0
FFFFFF00
FFFFFE00
FFFFFF00
FF87FF00
FF83FF80
FF81FFC0
FF80FFE0
FF80FFE0
FF807FF0
FF803FF8
FF803FF8
FF801FFC
FF800FFE
ENDCHAR
STARTCHAR C0083-S
ENCODING 83
SWIDTH 645 0
DWIDTH 31 0
BBX 30 34 -1 0
BITMAP
000FFC00
007FFF80
01FFFFE0
03FFFFF8
07FFFFFC
0FFFFFFC
0FFFFFF8
1FFFFFF0
1FFC0FF0
1FF801E0
1FF80040
1FFC0000
1FFE0000
1FFFE000
0FFFFE00
0FFFFF80
07FFFFE0
01FFFFF0
00FFFFF8
001FFFF8
0003FFFC
00003FFC
04000FFC
0E000FFC
1F800FFC
3FF01FFC
3FFFFFFC
7FFFFFF8
FFFFFFF8
3FFFFFF0
1FFFFFE0
07FFFFC0
01FFFF00
001FF800
ENDCHAR
STARTCHAR C0084-T
ENCODING 84
SWIDTH 666 0
DWIDTH 32 0
BBX 29 34 1 0
BITMAP
FFFFFFF8
FFFFFFF8
FFFFFFF8
FFFFFFF8
FFFFFFF8
FFFFFFF8
FFFFFFF8
FFFFFFF8
003FE000
003FE000
003FE000
003FE000
003FE000
003FE000
003FE000
003FE000
003FE000
003FE000
003FE000
003FE000
003FE000
003FE000
003FE000
003FE000
003FE000
003FE000
003FE000
003FE000
003FE000
003FE000
003FE000
003FE000
003FE000
003FE000
ENDCHAR
STARTCHAR C0085-U
ENCODING 85
SWIDTH 750 0
DWIDTH 36 0
BBX 30 34 3 0
BITMAP
FFC00FFC
FFC00FFC
FFC00FFC
FFC00FFC
FFC00FFC
FFC00FFC
FFC00FFC
FFC00FFC
FFC00FFC
FFC00FFC
FFC00FFC
FFC00FFC
FFC00FFC
FFC00FFC
FFC00FFC
FFC00FFC
FFC00FFC
FFC00FFC
FFC00FFC
FFC00FFC
FFC00FFC
FFC00FFC
FFC00FFC
FFE01FFC
7FF03FF8
7FF87FF8
7FFFFFF8
3FFFFFF0
1FFFFFE0
1FFFFFE0
0FFFFFC0
07FFFF00
01FFFE00
003FF000
ENDCHAR
STARTCHAR C0086-V
ENCODING 86
SWIDTH 750 0
DWIDTH 36 0
BBX 36 34 0 0
BITMAP
FFE0003FF0
7FE0007FF0
7FF0007FE0
3FF0007FE0
3FF000FFC0
3FF800FFC0
1FF800FFC0
1FF801FF80
0FFC01FF80
0FFC01FF00
0FFC03FF00
07FE03FF00
07FE03FE00
03FF07FE00
03FF07FC00
03FF0FFC00
01FF8FFC00
01FF8FF800
00FF9FF800
00FFDFF000
007FDFF000
007FFFF000
007FFFE000
003FFFE000
003FFFC000
001FFFC000
001FFFC000
001FFF8000
000FFF8000
000FFF0000
0007FF0000
0007FF0000
0007FE0000
0003FE0000
ENDCHAR
STARTCHAR C0087-W
ENCODING 87
SWIDTH 1125 0
DWIDTH 54 0
BBX 52 34 1 0
BITMAP
FFC003FC003FF0
FFC007FC003FE0
7FC007FE003FE0
7FE007FE007FE0
7FE00FFE007FC0
3FE00FFF007FC0
3FF00FFF00FFC0
3FF01FFF00FF80
1FF01FFF80FF80
1FF01FFF81FF80
1FF83FFF81FF00
0FF83FFFC1FF00
0FF83FFFC1FF00
0FFC7FFFC3FE00
07FC7FFFE3FE00
07FC7FBFE3FE00
07FEFFBFE7FC00
03FEFF9FF7FC00
03FEFF1FF7FC00
03FFFF1FFFF800
03FFFF0FFFF800
01FFFE0FFFF800
01FFFE07FFF000
01FFFE07FFF000
00FFFC07FFF000
00FFFC03FFE000
00FFFC03FFE000
007FF803FFE000
007FF801FFC000
007FF801FFC000
003FF001FFC000
003FF000FF8000
003FF000FF8000
001FE000FF8000
ENDCHAR
STARTCHAR C0088-X
ENCODING 88
SWIDTH 729 0
DWIDTH 35 0
BBX 34 34 1 0
BITMAP
FFE003FF80
7FF003FF00
3FF007FE00
3FF80FFE00
1FFC0FFC00
0FFC1FF800
0FFE1FF800
07FE3FF000
03FF7FE000
03FFFFE000
01FFFFC000
00FFFF8000
00FFFF8000
007FFF0000
003FFE0000
003FFE0000
001FFC0000
001FFE0000
003FFE0000
007FFF0000
007FFF8000
00FFFF8000
01FFFFC000
01FFFFE000
03FF7FE000
07FE3FF000
07FE3FF800
0FFC1FF800
1FF81FFC00
1FF80FFE00
3FF007FE00
7FF007FF00
7FE003FF80
FFC001FFC0
ENDCHAR
STARTCHAR C0089-Y
ENCODING 89
SWIDTH 729 0
DWIDTH 35 0
BBX 36 34 -1 0
BITMAP
FFE0007FF0
7FF000FFE0
3FF000FFC0
3FF801FFC0
1FF801FF80
0FFC03FF00
0FFE03FF00
07FE07FE00
07FF0FFE00
03FF0FFC00
01FF9FF800
01FFDFF800
00FFFFF000
00FFFFF000
007FFFE000
003FFFC000
003FFFC000
001FFF8000
001FFF8000
000FFF0000
0007FE0000
0007FE0000
0007FE0000
0007FE0000
0007FE0000
0007FE0000
0007FE0000
0007FE0000
0007FE0000
0007FE0000
0007FE0000
0007FE0000
0007FE0000
0007FE0000
ENDCHAR
STARTCHAR C0090-Z
ENCODING 90
SWIDTH 708 0
DWIDTH 34 0
BBX 30 34 2 0
BITMAP
FFFFFFFC
FFFFFFFC
FFFFFFFC
FFFFFFFC
FFFFFFFC
FFFFFFFC
FFFFFFFC
FFFFFFF8
0000FFF0
0001FFE0
0001FFC0
0003FFC0
0007FF80
000FFF00
001FFE00
003FFC00
007FF800
00FFF000
00FFE000
01FFC000
03FFC000
07FF8000
0FFF0000
1FFE0000
3FFC0000
7FF80000
FFFFFFFC
FFFFFFFC
FFFFFFFC
FFFFFFFC
FFFFFFFC
FFFFFFFC
FFFFFFFC
FFFFFFFC
ENDCHAR
STARTCHAR C0091-[
ENCODING 91
SWIDTH 458 0
DWIDTH 22 0
BBX 17 41 3 -7
BITMAP
FFFF80
FFFF80
FFFF80
FFFF80
FFFF80
FFFF80
FFFF80
FF8000
FF8000
FF8000
FF8000
FF8000
FF8000
FF8000
FF8000
FF8000
FF8000
FF8000
FF8000
FF8000
FF8000
FF8000
FF8000
FF8000
FF8000
FF8000
FF8000
FF8000
FF8000
FF8000
FF8000
FF8000
FF8000
FF8000
FFFF80
FFFF80
FFFF80
FFFF80
FFFF80
FFFF80
FFFF80
ENDCHAR
STARTCHAR C0092-\
ENCODING 92
SWIDTH 541 0
DWIDTH 26 0
BBX 29 44 -1 -6
BITMAP
FE000000
7F000000
7F000000
3F800000
3F800000
1FC00000
1FC00000
1FE00000
0FE00000
0FF00000
07F00000
07F80000
03F80000
03FC0000
01FC0000
01FE0000
00FE0000
00FF0000
007F0000
007F8000
003F8000
003FC000
001FC000
001FE000
000FE000
000FF000
0007F000
0007F800
0003F800
0003F800
0001FC00
0001FC00
0000FE00
0000FE00
00007F00
00007F00
00007F80
00003F80
00003FC0
00001FC0
00001FE0
00000FE0
00000FF0
000007F8
ENDCHAR
STARTCHAR C0093-]
ENCODING 93
SWIDTH 458 0
DWIDTH 22 0
BBX 17 41 2 -7
BITMAP
FFFF80
FFFF80
FFFF80
FFFF80
FFFF80
FFFF80
FFFF80
00FF80
00FF80
00FF80
00FF80
00FF80
00FF80
00FF80
00FF80
00FF80
00FF80
00FF80
00FF80
00FF80
00FF80
00FF80
00FF80
00FF80
00FF80
00FF80
00FF80
00FF80
00FF80
00FF80
00FF80
00FF80
00FF80
00FF80
FFFF80
FFFF80
FFFF80
FFFF80
FFFF80
FFFF80
FFFF80
ENDCHAR
STARTCHAR C0094-^
ENCODING 94
SWIDTH 500 0
DWIDTH 24 0
BBX 20 10 2 24
BITMAP
01F800
03FC00
07FE00
07FE00
0FFF00
1FFF80
3F9FC0
3F0FC0
7E0FE0
FE07F0
ENDCHAR
STARTCHAR C0095-_
ENCODING 95
SWIDTH 604 0
DWIDTH 29 0
BBX 29 6 0 -8
BITMAP
FFFFFFF8
FFFFFFF8
FFFFFFF8
FFFFFFF8
FFFFFFF8
FFFFFFF8
ENDCHAR
STARTCHAR C0096-`
ENCODING 96
SWIDTH 500 0
DWIDTH 24 0
BBX 14 9 4 28
BITMAP
0180
0FC0
7FC0
FFE0
3FE0
1FF0
0FF0
03F8
01FC
ENDCHAR
STARTCHAR C0097-a
ENCODING 97
SWIDTH 604 0
DWIDTH 29 0
BBX 26 26 1 0
BITMAP
00FFC000
0FFFF800
1FFFFC00
1FFFFF00
0FFFFF00
0FFFFF80
0FFFFF80
0F01FFC0
0000FFC0
00007FC0
00007FC0
03FE7FC0
0FFFFFC0
3FFFFFC0
7FFFFFC0
7FE07FC0
FF807FC0
FF807FC0
FF80FFC0
FFC1FFC0
FFFFFFC0
7FFFFFC0
7FFFFFC0
3FFF7FC0
1FFE7FC0
07F07FC0
ENDCHAR
STARTCHAR C0098-b
ENCODING 98
SWIDTH 666 0
DWIDTH 32 0
BBX 29 35 2 0
BITMAP
FF800000
FF800000
FF800000
FF800000
FF800000
FF800000
FF800000
FF800000
FF800000
FF83F800
FF8FFE00
FF9FFF00
FFBFFFC0
FFFFFFC0
FFFFFFE0
FFFFFFF0
FFFFFFF0
FFF07FF0
FFC01FF8
FFC01FF8
FF800FF8
FF800FF8
FF800FF8
FF800FF8
FFC01FF8
FFC01FF8
FFF07FF0
FFFFFFF0
FFFFFFF0
FFFFFFE0
FFFFFFC0
FFFFFF80
FFBFFF00
FF8FFE00
FF83F800
ENDCHAR
STARTCHAR C0099-c
ENCODING 99
SWIDTH 562 0
DWIDTH 27 0
BBX 25 26 1 0
BITMAP
003FC000
01FFF800
03FFFC00
0FFFFE00
1FFFFF00
3FFFFF80
3FFFFF80
7FFFFE00
7FF07C00
FFC03800
FFC02000
FF800000
FF800000
FF800000
FF800000
FFC02000
FFC03800
7FF07C00
7FFFFF00
3FFFFF80
3FFFFF80
1FFFFF00
0FFFFE00
03FFFC00
01FFF000
003FC000
ENDCHAR
STARTCHAR C0100-d
ENCODING 100
SWIDTH 666 0
DWIDTH 32 0
BBX 29 35 1 0
BITMAP
00000FF8
00000FF8
00000FF8
00000FF8
00000FF8
00000FF8
00000FF8
00000FF8
00000FF8
00FE0FF8
03FF8FF8
07FFEFF8
1FFFFFF8
1FFFFFF8
3FFFFFF8
7FFFFFF8
7FFFFFF8
7FF07FF8
FFE01FF8
FFC01FF8
FF800FF8
FF800FF8
FF800FF8
FF800FF8
FFC01FF8
FFE01FF8
7FF07FF8
7FFFFFF8
7FFFFFF8
3FFFFFF8
1FFFFFF8
1FFFEFF8
07FFCFF8
03FF8FF8
00FE0FF8
ENDCHAR
STARTCHAR C0101-e
ENCODING 101
SWIDTH 604 0
DWIDTH 29 0
BBX 27 26 1 0
BITMAP
003FC000
01FFF000
03FFFC00
0FFFFE00
1FFFFF00
1FFFFF00
3FFFFF80
3FE0FF80
7FC07FC0
7FC03FC0
7F803FC0
FFFFFFC0
FFFFFFE0
FFFFFFE0
FFFFFFE0
7FFFFFE0
7F800800
7FC01C00
7FF03E00
3FFFFF00
1FFFFFC0
1FFFFF80
0FFFFF00
03FFFE00
01FFF800
003FC000
ENDCHAR
STARTCHAR C0102-f
ENCODING 102
SWIDTH 395 0
DWIDTH 19 0
BBX 18 35 1 0
BITMAP
00FF80
03FFC0
07FFC0
0FFFC0
0FFFC0
1FFFC0
1FFFC0
1FF000
1FF000
FFFFC0
FFFFC0
FFFFC0
FFFFC0
FFFFC0
FFFFC0
FFFFC0
1FF000
1FF000
1FF000
1FF000
1FF000
1FF000
1FF000
1FF000
1FF000
1FF000
1FF000
1FF000
1FF000
1FF000
1FF000
1FF000
1FF000
1FF000
1FF000
ENDCHAR
STARTCHAR C0103-g
ENCODING 103
SWIDTH 666 0
DWIDTH 32 0
BBX 29 34 1 -8
BITMAP
00FE0FF8
03FF8FF8
0FFFEFF8
1FFFFFF8
3FFFFFF8
3FFFFFF8
7FFFFFF8
7FF07FF8
FFC01FF8
FFC01FF8
FF800FF8
FF800FF8
FF800FF8
FF800FF8
FFC01FF8
FFC01FF8
7FF07FF8
7FFFFFF8
3FFFFFF8
3FFFFFF8
1FFFFFF8
0FFFEFF8
03FF8FF8
00FE0FF8
00001FF8
0C003FF0
1F807FF0
1FFFFFF0
3FFFFFE0
3FFFFFC0
7FFFFF80
1FFFFF00
07FFFC00
007FE000
ENDCHAR
STARTCHAR C0104-h
ENCODING 104
SWIDTH 625 0
DWIDTH 30 0
BBX 26 35 2 0
BITMAP
FF800000
FF800000
FF800000
FF800000
FF800000
FF800000
FF800000
FF800000
FF800000
FF83F000
FF8FFC00
FF9FFF00
FFFFFF00
FFFFFF80
FFFFFF80
FFFFFFC0
FFFFFFC0
FFE1FFC0
FFC0FFC0
FF807FC0
FF807FC0
FF807FC0
FF807FC0
FF807FC0
FF807FC0
FF807FC0
FF807FC0
FF807FC0
FF807FC0
FF807FC0
FF807FC0
FF807FC0
FF807FC0
FF807FC0
FF807FC0
ENDCHAR
STARTCHAR C0105-i
ENCODING 105
SWIDTH 291 0
DWIDTH 14 0
BBX 9 35 3 0
BITMAP
FF80
FF80
FF80
FF80
FF80
FF80
FF80
0000
0000
FF80
FF80
FF80
FF80
FF80
FF80
FF80
FF80
FF80
FF80
FF80
FF80
FF80
FF80
FF80
FF80
FF80
FF80
FF80
FF80
FF80
FF80
FF80
FF80
FF80
FF80
ENDCHAR
STARTCHAR C0106-j
ENCODING 106
SWIDTH 312 0
DWIDTH 15 0
BBX 13 43 -1 -8
BITMAP
0FF8
0FF8
0FF8
0FF8
0FF8
0FF8
0FF8
0000
0000
0FF8
0FF8
0FF8
0FF8
0FF8
0FF8
0FF8
0FF8
0FF8
0FF8
0FF8
0FF8
0FF8
0FF8
0FF8
0FF8
0FF8
0FF8
0FF8
0FF8
0FF8
0FF8
0FF8
0FF8
0FF8
0FF8
1FF8
FFF8
FFF8
FFF0
FFF0
FFE0
FFC0
7F00
ENDCHAR
STARTCHAR C0107-k
ENCODING 107
SWIDTH 604 0
DWIDTH 29 0
BBX 27 35 3 0
BITMAP
FF800000
FF800000
FF800000
FF800000
FF800000
FF800000
FF800000
FF800000
FF800000
FF80FFC0
FF81FF80
FF83FF00
FF87FE00
FF8FFE00
FF8FFC00
FF9FF800
FFBFF000
FFFFE000
FFFFC000
FFFF8000
FFFFC000
FFFFE000
FFFFE000
FFFFF000
FFFFF000
FFFFF800
FFEFFC00
FFCFFC00
FF87FE00
FF87FE00
FF83FF00
FF81FF80
FF81FF80
FF80FFC0
FF80FFE0
ENDCHAR
STARTCHAR C0108-l
ENCODING 108
SWIDTH 291 0
DWIDTH 14 0
BBX 9 35 3 0
BITMAP
FF80
FF80
FF80
FF80
FF80
FF80
FF80
FF80
FF80
FF80
FF80
FF80
FF80
FF80
FF80
FF80
FF80
FF80
FF80
FF80
FF80
FF80
FF80
FF80
FF80
FF80
FF80
FF80
FF80
FF80
FF80
FF80
FF80
FF80
FF80
ENDCHAR
STARTCHAR C0109-m
ENCODING 109
SWIDTH 979 0
DWIDTH 47 0
BBX 41 26 3 0
BITMAP
FF87F007F000
FF8FFC1FFC00
FFBFFE3FFE00
FFFFFEFFFF00
FFFFFFFFFF00
FFFFFFFFFF00
FFFFFFFFFF80
FFFFFFFFFF80
FFE3FFE3FF80
FFC1FFC1FF80
FF80FF80FF80
FF80FF80FF80
FF80FF80FF80
FF80FF80FF80
FF80FF80FF80
FF80FF80FF80
FF80FF80FF80
FF80FF80FF80
FF80FF80FF80
FF80FF80FF80
FF80FF80FF80
FF80FF80FF80
FF80FF80FF80
FF80FF80FF80
FF80FF80FF80
FF80FF80FF80
ENDCHAR
STARTCHAR C0110-n
ENCODING 110
SWIDTH 625 0
DWIDTH 30 0
BBX 26 26 2 0
BITMAP
FF83F000
FF8FFC00
FF9FFF00
FFBFFF00
FFFFFF80
FFFFFF80
FFFFFFC0
FFFFFFC0
FFE1FFC0
FFC0FFC0
FF807FC0
FF807FC0
FF807FC0
FF807FC0
FF807FC0
FF807FC0
FF807FC0
FF807FC0
FF807FC0
FF807FC0
FF807FC0
FF807FC0
FF807FC0
FF807FC0
FF807FC0
FF807FC0
ENDCHAR
STARTCHAR C0111-o
ENCODING 111
SWIDTH 645 0
DWIDTH 31 0
BBX 29 26 1 0
BITMAP
003FE000
00FFF800
03FFFE00
0FFFFF80
1FFFFFC0
1FFFFFC0
3FFFFFE0
7FFFFFF0
7FF07FF0
7FC03FF8
FFC01FF8
FF800FF8
FF800FF8
FF800FF8
FF800FF8
FFC01FF8
FFE01FF0
7FF07FF0
7FFFFFF0
3FFFFFE0
1FFFFFC0
1FFFFFC0
0FFFFF00
03FFFE00
00FFF800
003FE000
ENDCHAR
STARTCHAR C0112-p
ENCODING 112
SWIDTH 666 0
DWIDTH 32 0
BBX 29 34 2 -8
BITMAP
FF83F800
FF8FFE00
FF9FFF00
FFBFFF80
FFFFFFC0
FFFFFFE0
FFFFFFF0
FFFFFFF0
FFF07FF0
FFC01FF8
FFC01FF8
FF800FF8
FF800FF8
FF800FF8
FF800FF8
FFC01FF8
FFC01FF8
FFF07FF0
FFFFFFF0
FFFFFFF0
FFFFFFE0
FFFFFFC0
FFFFFF80
FFBFFF00
FF8FFE00
FF83F800
FF800000
FF800000
FF800000
FF800000
FF800000
FF800000
FF800000
FF800000
ENDCHAR
STARTCHAR C0113-q
ENCODING 113
SWIDTH 666 0
DWIDTH 32 0
BBX 29 34 1 -8
BITMAP
00FE0FF8
03FF8FF8
07FFEFF8
1FFFFFF8
1FFFFFF8
3FFFFFF8
7FFFFFF8
7FFFFFF8
7FF07FF8
FFE01FF8
FFC01FF8
FF800FF8
FF800FF8
FF800FF8
FF800FF8
FFC01FF8
FFE01FF8
7FF07FF8
7FFFFFF8
7FFFFFF8
3FFFFFF8
1FFFFFF8
0FFFEFF8
07FFCFF8
03FF8FF8
00FE0FF8
00000FF8
00000FF8
00000FF8
00000FF8
00000FF8
00000FF8
00000FF8
00000FF8
ENDCHAR
STARTCHAR C0114-r
ENCODING 114
SWIDTH 437 0
DWIDTH 21 0
BBX 17 27 3 0
BITMAP
000080
FF8780
FF9F80
FF9F80
FFBF80
FFFF80
FFFF80
FFFF80
FFFF80
FFFF80
FFF800
FFF000
FFE000
FFC000
FFC000
FF8000
FF8000
FF8000
FF8000
FF8000
FF8000
FF8000
FF8000
FF8000
FF8000
FF8000
FF8000
ENDCHAR
STARTCHAR C0115-s
ENCODING 115
SWIDTH 520 0
DWIDTH 25 0
BBX 23 26 0 0
BITMAP
00FF00
03FFF0
0FFFFC
1FFFFE
1FFFFC
3FFFFC
3FFFF8
3FC1F8
3FC030
3FE000
3FFE00
1FFFC0
0FFFF0
07FFF8
01FFFC
003FFE
0803FE
1E01FE
3F81FE
3FFFFE
7FFFFE
7FFFFE
FFFFFC
1FFFF8
07FFF0
00FF80
ENDCHAR
STARTCHAR C0116-t
ENCODING 116
SWIDTH 437 0
DWIDTH 21 0
BBX 18 33 1 0
BITMAP
1FF000
1FF000
1FF000
1FF000
1FF000
1FF000
1FF000
FFFFC0
FFFFC0
FFFFC0
FFFFC0
FFFFC0
FFFFC0
FFFFC0
1FF000
1FF000
1FF000
1FF000
1FF000
1FF000
1FF000
1FF000
1FF000
1FF000
1FF840
1FFFC0
1FFFC0
1FFFC0
0FFFC0
0FFFC0
07FFC0
03FFC0
00FE00
ENDCHAR
STARTCHAR C0117-u
ENCODING 117
SWIDTH 625 0
DWIDTH 30 0
BBX 26 26 2 0
BITMAP
FF807FC0
FF807FC0
FF807FC0
FF807FC0
FF807FC0
FF807FC0
FF807FC0
FF807FC0
FF807FC0
FF807FC0
FF807FC0
FF807FC0
FF807FC0
FF807FC0
FF807FC0
FF807FC0
FFC0FFC0
FFE1FFC0
FFFFFFC0
FFFFFFC0
7FFFFFC0
7FFFFFC0
3FFFFFC0
3FFE7FC0
0FFC7FC0
03F07FC0
ENDCHAR
STARTCHAR C0118-v
ENCODING 118
SWIDTH 625 0
DWIDTH 30 0
BBX 30 26 0 0
BITMAP
FFC00FFC
7FE00FF8
7FE01FF8
3FE01FF0
3FF01FF0
1FF03FE0
1FF03FE0
1FF83FE0
0FF87FC0
0FF87FC0
07FC7F80
07FCFF80
07FCFF80
03FEFF00
03FFFF00
01FFFE00
01FFFE00
01FFFE00
00FFFC00
00FFFC00
007FF800
007FF800
007FF800
003FF000
003FF000
001FE000
ENDCHAR
STARTCHAR C0119-w
ENCODING 119
SWIDTH 854 0
DWIDTH 41 0
BBX 40 26 1 0
BITMAP
FF80FF01FF
FF81FF01FE
FF81FF03FE
7F81FF83FE
7FC1FF83FC
7FC3FF83FC
3FC3FF87FC
3FC3FFC7F8
3FE7FFC7F8
3FE7FFCFF8
1FE7FFEFF8
1FFFFFEFF0
1FFFFFEFF0
0FFFEFFFF0
0FFFEFFFE0
0FFFE7FFE0
07FFC7FFE0
07FFC7FFC0
07FFC7FFC0
03FF83FFC0
03FF83FF80
03FF83FF80
03FF01FF80
01FF01FF80
01FF01FF00
01FE00FF00
ENDCHAR
STARTCHAR C0120-x
ENCODING 120
SWIDTH 583 0
DWIDTH 28 0
BBX 28 26 0 0
BITMAP
7FE03FF0
3FE07FE0
3FF07FC0
1FF0FF80
0FF9FF80
0FFDFF00
07FFFE00
03FFFE00
03FFFC00
01FFF800
00FFF800
00FFF000
007FE000
007FF000
00FFF000
01FFF800
01FFFC00
03FFFC00
07FFFE00
07FFFF00
0FF9FF00
1FF9FF80
1FF0FFC0
3FF07FC0
7FE07FE0
FFC03FF0
ENDCHAR
STARTCHAR C0121-y
ENCODING 121
SWIDTH 625 0
DWIDTH 30 0
BBX 29 34 1 -8
BITMAP
FF801FF8
FFC01FF0
7FC03FF0
7FC03FE0
7FE03FE0
3FE07FC0
3FE07FC0
3FF07FC0
1FF07F80
1FF0FF80
0FF8FF80
0FF8FF00
0FF9FF00
07FDFE00
07FDFE00
03FFFE00
03FFFC00
03FFFC00
01FFFC00
01FFF800
00FFF800
00FFF800
00FFF000
007FF000
007FE000
003FE000
187FE000
1FFFC000
3FFFC000
3FFF8000
7FFF8000
7FFF0000
3FFE0000
07F80000
ENDCHAR
STARTCHAR C0122-z
ENCODING 122
SWIDTH 562 0
DWIDTH 27 0
BBX 24 26 2 0
BITMAP
FFFFFF
FFFFFF
FFFFFF
FFFFFF
FFFFFF
FFFFFF
FFFFFE
001FFC
003FF8
007FF0
00FFF0
01FFE0
03FFC0
07FF80
07FF00
0FFE00
1FFC00
3FF800
7FF000
FFFFFF
FFFFFF
FFFFFF
FFFFFF
FFFFFF
FFFFFF
FFFFFF
ENDCHAR
STARTCHAR C0123-{
ENCODING 123
SWIDTH 500 0
DWIDTH 24 0
BBX 21 41 1 -7
BITMAP
0000F0
000FF0
003FF0
00FFF0
01FFF8
01FFF0
03FF80
03FF00
03FE00
03FE00
03FE00
03FE00
03FE00
03FE00
03FE00
07FE00
0FFE00
FFFC00
FFF800
FFF000
FF8000
FFF000
FFF800
FFFC00
0FFE00
07FE00
03FE00
03FE00
03FE00
03FE00
03FE00
03FE00
03FE00
03FF00
03FF80
01FFF0
01FFF8
00FFF0
003FF0
000FF0
0000F0
ENDCHAR
STARTCHAR C0124-|
ENCODING 124
SWIDTH 354 0
DWIDTH 17 0
BBX 7 44 5 -6
BITMAP
FE
FE
FE
FE
FE
FE
FE
FE
FE
FE
FE
FE
FE
FE
FE
FE
FE
FE
FE
FE
FE
FE
FE
FE
FE
FE
FE
FE
FE
FE
FE
FE
FE
FE
FE
FE
FE
FE
FE
FE
FE
FE
FE
FE
ENDCHAR
STARTCHAR C0125-}
ENCODING 125
SWIDTH 500 0
DWIDTH 24 0
BBX 21 41 1 -7
BITMAP
780000
7F8000
7FE000
7FF800
FFFC00
7FFC00
0FFE00
07FE00
03FE00
03FE00
03FE00
03FE00
03FE00
03FE00
03FE00
03FF00
03FF80
01FFF8
00FFF8
007FF8
000FF8
007FF8
00FFF8
01FFF8
03FF80
03FF00
03FE00
03FE00
03FE00
03FE00
03FE00
03FE00
03FE00
07FE00
0FFE00
7FFC00
FFFC00
7FF800
7FE000
7F8000
780000
ENDCHAR
STARTCHAR C0126-~
ENCODING 126
SWIDTH 500 0
DWIDTH 24 0
BBX 20 8 2 11
BITMAP
0FC1C0
3FFFF0
3FFFF0
7FFFF0
7FFFE0
FFFFE0
FFFFC0
383F80
ENDCHAR
STARTCHAR C0127
ENCODING 127
SWIDTH 500 0
DWIDTH 24 0
BBX 1 1 0 -1
BITMAP
00
ENDCHAR
STARTCHAR C0128
ENCODING 128
SWIDTH 500 0
DWIDTH 24 0
BBX 1 1 0 -1
BITMAP
00
ENDCHAR
STARTCHAR C0129
ENCODING 129
SWIDTH 500 0
DWIDTH 24 0
BBX 1 1 0 -1
BITMAP
00
ENDCHAR
STARTCHAR C0130
ENCODING 130
SWIDTH 291 0
DWIDTH 14 0
BBX 11 17 1 -8
BITMAP
7FE0
7FE0
7FE0
7FE0
7FE0
7FE0
7FE0
7FE0
7FE0
07E0
07E0
0FC0
1FC0
FF80
FF80
7E00
7800
ENDCHAR
STARTCHAR C0131
ENCODING 131
SWIDTH 562 0
DWIDTH 27 0
BBX 24 34 1 0
BITMAP
0001FF
0007FF
001FFF
003FFF
003FFF
007FFF
007FFF
007FE0
007FC0
00FFC0
00FF80
0FFFFE
0FFFFE
0FFFFE
0FFFFE
0FFFFE
0FFFFE
0FFFFE
01FF00
01FF00
03FF00
03FE00
03FE00
03FE00
03FE00
07FE00
07FC00
FFFC00
FFFC00
FFF800
FFF800
FFF000
FFE000
FF8000
ENDCHAR
STARTCHAR C0132
ENCODING 132
SWIDTH 541 0
DWIDTH 26 0
BBX 24 17 1 -8
BITMAP
7FE3FF
7FE3FF
7FE3FF
7FE3FF
7FE3FF
7FE3FF
7FE3FF
7FE3FF
7FE3FF
07E03F
07E03F
0FC07E
1FC0FE
FF87FC
7F83FC
7E03F0
7803C0
ENDCHAR
STARTCHAR C0133
ENCODING 133
SWIDTH 833 0
DWIDTH 40 0
BBX 35 9 2 0
BITMAP
FF87FC3FE0
FF87FC3FE0
FF87FC3FE0
FF87FC3FE0
FF87FC3FE0
FF87FC3FE0
FF87FC3FE0
FF87FC3FE0
FF87FC3FE0
ENDCHAR
STARTCHAR C0134
ENCODING 134
SWIDTH 416 0
DWIDTH 20 0
BBX 16 23 2 11
BITMAP
07E0
07C0
07C0
03C0
03C0
03C0
FFFF
FFFF
FFFF
FFFF
83C1
03C0
03C0
03C0
03C0
03C0
03C0
03C0
03C0
03C0
03C0
07C0
07C0
ENDCHAR
STARTCHAR C0135
ENCODING 135
SWIDTH 437 0
DWIDTH 21 0
BBX 16 34 2 0
BITMAP
03E0
03E0
03E0
03E0
03C0
03C0
FFFF
FFFF
FFFF
FFFF
C3C3
03C0
03C0
03C0
03E0
03E0
03E0
03E0
03E0
03E0
03C0
03C0
03C0
C3C3
FFFF
FFFF
FFFF
FFFF
03C0
03C0
03E0
03E0
03E0
03E0
ENDCHAR
STARTCHAR C0136
ENCODING 136
SWIDTH 500 0
DWIDTH 24 0
BBX 20 8 2 28
BITMAP
03FC00
07FE00
0FFF00
0FFF00
1FFF80
3F9FC0
7F0FE0
FE07F0
ENDCHAR
STARTCHAR C0137
ENCODING 137
SWIDTH 1291 0
DWIDTH 62 0
BBX 59 34 2 0
BITMAP
03E00007F0000000
0FF80007E0000000
3FFE000FE0000000
3FFE001FC0000000
7FFF003F80000000
7E3F007F00000000
FC3F807F00000000
FC1F80FE00000000
FC1F81FC00000000
FC1F83F800000000
FC1F83F000000000
FE1F87F000000000
7E3F0FE000000000
7FFF1FC000000000
3FFE1F8000000000
3FFE3F8000000000
0FF87F0000000000
07E0FE0FC001F800
0001FC3FF007FE00
0001F8FFFC1FFF80
0003F8FFFC1FFF80
0007F1FFFE3FFFC0
000FE1F87E3F0FC0
000FC3F03F7E07E0
001FC3F03F7E07E0
003F83F03F7E07E0
007F03F03F7E07E0
00FE03F83F7F07E0
00FE01F87E3F0FC0
01FC01FFFE3FFFC0
03F800FFFC1FFF80
07F000FFF81FFF00
07E0003FF007FE00
0FE0000FC001F800
ENDCHAR
STARTCHAR C0138
ENCODING 138
SWIDTH 645 0
DWIDTH 31 0
BBX 30 44 -1 0
BITMAP
01FC1F80
00FE3F00
007F7E00
007FFE00
003FFC00
001FF800
000FF800
0007F000
00000000
00000000
000FFC00
007FFF80
01FFFFE0
03FFFFF8
07FFFFFC
0FFFFFFC
0FFFFFF8
1FFFFFF0
1FFC0FF0
1FF801E0
1FF80040
1FFC0000
1FFE0000
1FFFE000
0FFFFE00
0FFFFF80
07FFFFE0
01FFFFF0
00FFFFF8
001FFFF8
0003FFFC
00003FFC
04000FFC
0E000FFC
1F800FFC
3FF01FFC
3FFFFFFC
7FFFFFF8
FFFFFFF8
3FFFFFF0
1FFFFFE0
07FFFFC0
01FFFF00
001FF800
ENDCHAR
STARTCHAR C0139
ENCODING 139
SWIDTH 354 0
DWIDTH 17 0
BBX 15 23 1 1
BITMAP
0080
01E0
03F8
03FE
07FC
0FF8
1FF0
1FE0
3FE0
7FC0
FF80
FF00
FF80
7FC0
3FE0
1FE0
1FF0
0FF8
07FC
03FE
03F8
01E0
0080
ENDCHAR
STARTCHAR C0140
ENCODING 140
SWIDTH 1083 0
DWIDTH 52 0
BBX 48 34 2 0
BITMAP
0003FFFFFFFF
003FFFFFFFFF
00FFFFFFFFFF
01FFFFFFFFFF
07FFFFFFFFFF
0FFFFFFFFFFF
0FFFFFFFFFFF
1FFFFFFFFFFF
3FFF03FE0000
3FFC03FE0000
7FF003FE0000
7FF003FE0000
7FE003FE0000
FFE003FE0000
FFC003FFFFFC
FFC003FFFFFC
FFC003FFFFFC
FFC003FFFFFC
FFC003FFFFFC
FFC003FFFFFC
FFE003FFFFFC
FFE003FE0000
7FF003FE0000
7FF003FE0000
7FFC03FE0000
3FFF03FE0000
1FFFFFFFFFFF
1FFFFFFFFFFF
0FFFFFFFFFFF
07FFFFFFFFFF
03FFFFFFFFFF
00FFFFFFFFFF
003FFFFFFFFF
0003FFFFFFFF
ENDCHAR
STARTCHAR C0141
ENCODING 141
SWIDTH 500 0
DWIDTH 24 0
BBX 1 1 0 -1
BITMAP
00
ENDCHAR
STARTCHAR C0142
ENCODING 142
SWIDTH 708 0
DWIDTH 34 0
BBX 30 44 2 0
BITMAP
07F03F80
03F87F00
01FCFE00
00FFFC00
007FF800
007FF800
003FF000
001FE000
00000000
00000000
FFFFFFFC
FFFFFFFC
FFFFFFFC
FFFFFFFC
FFFFFFFC
FFFFFFFC
FFFFFFFC
FFFFFFF8
0000FFF0
0001FFE0
0001FFC0
0003FFC0
0007FF80
000FFF00
001FFE00
003FFC00
007FF800
00FFF000
00FFE000
01FFC000
03FFC000
07FF8000
0FFF0000
1FFE0000
3FFC0000
7FF80000
FFFFFFFC
FFFFFFFC
FFFFFFFC
FFFFFFFC
FFFFFFFC
FFFFFFFC
FFFFFFFC
FFFFFFFC
ENDCHAR
STARTCHAR C0143
ENCODING 143
SWIDTH 500 0
DWIDTH 24 0
BBX 1 1 0 -1
BITMAP
00
ENDCHAR
STARTCHAR C0144
ENCODING 144
SWIDTH 500 0
DWIDTH 24 0
BBX 1 1 0 -1
BITMAP
00
ENDCHAR
STARTCHAR C0145
ENCODING 145
SWIDTH 291 0
DWIDTH 14 0
BBX 11 17 2 17
BITMAP
03C0
0FC0
3FE0
3FE0
7F00
7E00
FC00
FC00
FFC0
FFC0
FFC0
FFC0
FFC0
FFC0
FFC0
FFC0
FFC0
ENDCHAR
STARTCHAR C0146
ENCODING 146
SWIDTH 291 0
DWIDTH 14 0
BBX 11 18 1 16
BITMAP
7FE0
7FE0
7FE0
7FE0
7FE0
7FE0
7FE0
7FE0
7FE0
07E0
07E0
07E0
0FC0
3FC0
FF80
FF00
7E00
7800
ENDCHAR
STARTCHAR C0147
ENCODING 147
SWIDTH 541 0
DWIDTH 26 0
BBX 24 17 2 17
BITMAP
03C01E
0FC07E
3FC0FE
3FE1FF
7F03F8
7E03F0
FC07E0
FC07E0
FFC7FE
FFC7FE
FFC7FE
FFC7FE
FFC7FE
FFC7FE
FFC7FE
FFC7FE
FFC7FE
ENDCHAR
STARTCHAR C0148
ENCODING 148
SWIDTH 541 0
DWIDTH 26 0
BBX 24 18 1 16
BITMAP
7FE3FF
7FE3FF
7FE3FF
7FE3FF
7FE3FF
7FE3FF
7FE3FF
7FE3FF
7FE3FF
07E03F
07E03F
07E03F
0FC07E
3FC1FE
FF87FC
7F03F8
7E03F0
7803C0
ENDCHAR
STARTCHAR C0149
ENCODING 149
SWIDTH 500 0
DWIDTH 24 0
BBX 16 16 4 9
BITMAP
07E0
1FF8
3FFC
7FFE
7FFE
FFFF
FFFF
FFFF
FFFF
FFFF
FFFF
7FFE
7FFE
3FFC
1FF8
07E0
ENDCHAR
STARTCHAR C0150
ENCODING 150
SWIDTH 520 0
DWIDTH 25 0
BBX 21 8 2 11
BITMAP
FFFFF8
FFFFF8
FFFFF8
FFFFF8
FFFFF8
FFFFF8
FFFFF8
FFFFF8
ENDCHAR
STARTCHAR C0151
ENCODING 151
SWIDTH 895 0
DWIDTH 43 0
BBX 39 8 2 11
BITMAP
FFFFFFFFFE
FFFFFFFFFE
FFFFFFFFFE
FFFFFFFFFE
FFFFFFFFFE
FFFFFFFFFE
FFFFFFFFFE
FFFFFFFFFE
ENDCHAR
STARTCHAR C0152
ENCODING 152
SWIDTH 500 0
DWIDTH 24 0
BBX 20 9 2 28
BITMAP
000080
1F81F0
3FE1F0
7FFFF0
7FFFE0
7FFFE0
FFFFC0
F87FC0
301F00
ENDCHAR
STARTCHAR C0153
ENCODING 153
SWIDTH 687 0
DWIDTH 33 0
BBX 31 15 1 19
BITMAP
FFF1F03E
FFF1F03E
FFF1F87E
FFF1FCFE
0F01FCFE
0F01FFFE
0F01FFFE
0F01EFDE
0F01EFDE
0F01E79E
0F01E31E
0F01E31E
0F01E01E
0F01E01E
0F01E01E
ENDCHAR
STARTCHAR C0154
ENCODING 154
SWIDTH 520 0
DWIDTH 25 0
BBX 23 36 0 0
BITMAP
1F80FC
0FE3F8
07F7F0
07FFF0
03FFE0
01FFC0
00FF80
00FF00
000000
000000
00FF00
03FFF0
0FFFFC
1FFFFE
1FFFFC
3FFFFC
3FFFF8
3FC1F8
3FC030
3FE000
3FFE00
1FFFC0
0FFFF0
07FFF8
01FFFC
003FFE
0803FE
1E01FE
3F81FE
3FFFFE
7FFFFE
7FFFFE
FFFFFC
1FFFF8
07FFF0
00FF80
ENDCHAR
STARTCHAR C0155
ENCODING 155
SWIDTH 354 0
DWIDTH 17 0
BBX 15 23 1 1
BITMAP
0200
0F00
3F80
FFC0
7FC0
3FE0
1FF0
0FF8
0FF8
07FC
03FE
01FE
03FE
07FC
0FF8
0FF8
1FF0
3FE0
7FC0
7FC0
BF80
0F00
0200
ENDCHAR
STARTCHAR C0156
ENCODING 156
SWIDTH 1020 0
DWIDTH 49 0
BBX 46 26 1 0
BITMAP
003FC007F800
00FFF81FFE00
03FFFC7FFF80
0FFFFEFFFFC0
1FFFFFFFFFE0
1FFFFFFFFFF0
3FFFFFFFFFF0
7FFFFFFE1FF8
7FF07FFC07F8
7FC03FF807F8
FFC01FF803F8
FF801FFFFFFC
FF800FFFFFFC
FF800FFFFFFC
FF801FFFFFFC
FFC01FFFFFFC
FFE03FF80100
7FF07FF80380
7FFFFFFE07C0
3FFFFFFFFFE0
1FFFFFFFFFF8
1FFFFFFFFFF0
0FFFFEFFFFE0
03FFFC7FFFC0
01FFF01FFF00
003FC003FC00
ENDCHAR
STARTCHAR C0157
ENCODING 157
SWIDTH 500 0
DWIDTH 24 0
BBX 1 1 0 -1
BITMAP
00
ENDCHAR
STARTCHAR C0158
ENCODING 158
SWIDTH 562 0
DWIDTH 27 0
BBX 24 36 2 0
BITMAP
3F01F8
1FC3F0
0FEFF0
07FFE0
07FFC0
03FF80
01FF00
00FF00
000000
000000
FFFFFF
FFFFFF
FFFFFF
FFFFFF
FFFFFF
FFFFFF
FFFFFE
001FFC
003FF8
007FF0
00FFF0
01FFE0
03FFC0
07FF80
07FF00
0FFE00
1FFC00
3FF800
7FF000
FFFFFF
FFFFFF
FFFFFF
FFFFFF
FFFFFF
FFFFFF
FFFFFF
ENDCHAR
STARTCHAR C0159
ENCODING 159
SWIDTH 729 0
DWIDTH 35 0
BBX 36 43 -1 0
BITMAP
007F8FF000
007F8FF000
007F8FF000
007F8FF000
007F8FF000
007F8FF000
007F8FF000
0000000000
0000000000
FFE0007FF0
7FF000FFE0
3FF000FFC0
3FF801FFC0
1FF801FF80
0FFC03FF00
0FFE03FF00
07FE07FE00
07FF0FFE00
03FF0FFC00
01FF9FF800
01FFDFF800
00FFFFF000
00FFFFF000
007FFFE000
003FFFC000
003FFFC000
001FFF8000
001FFF8000
000FFF0000
0007FE0000
0007FE0000
0007FE0000
0007FE0000
0007FE0000
0007FE0000
0007FE0000
0007FE0000
0007FE0000
0007FE0000
0007FE0000
0007FE0000
0007FE0000
0007FE0000
ENDCHAR
STARTCHAR C0160
ENCODING 160
SWIDTH 270 0
DWIDTH 13 0
BBX 1 1 0 -1
BITMAP
00
ENDCHAR
STARTCHAR C0161
ENCODING 161
SWIDTH 333 0
DWIDTH 16 0
BBX 10 34 3 0
BITMAP
FFC0
FFC0
FFC0
FFC0
FFC0
FFC0
FFC0
FFC0
0000
0000
0000
3E00
3E00
3E00
3F00
3F00
3F00
7F00
7F00
7F00
7F80
7F80
7F80
7F80
FF80
FF80
FF80
FFC0
FFC0
FFC0
FFC0
FFC0
FFC0
FFC0
ENDCHAR
STARTCHAR C0162
ENCODING 162
SWIDTH 583 0
DWIDTH 28 0
BBX 25 34 1 0
BITMAP
0003F000
0003E000
0003E000
000FE000
00FFF000
03FFFC00
07FFFE00
0FFFFF00
1FFFFF80
3FFFFF00
7FF7FE00
7FC7B800
7F8F9000
FF8F8000
FF0F0000
FF0F0000
FF0F0000
FF0F0000
FF1F0000
FF1F0000
FF9E1000
7FDE3800
7FFE7C00
3FFFFF00
3FFFFF80
1FFFFF00
0FFFFE00
07FFFC00
01FFF800
007FC000
007C0000
00FC0000
00FC0000
00FC0000
ENDCHAR
STARTCHAR C0163
ENCODING 163
SWIDTH 645 0
DWIDTH 31 0
BBX 27 34 2 0
BITMAP
000FF800
003FFE00
00FFFF80
01FFFFC0
03FFFFE0
03FFFFE0
07FFFFC0
07FFFF80
0FFE1F00
0FFC0600
0FF80400
0FF80000
0FF80000
0FF80000
0FF80000
FFFFFE00
FFFFFE00
FFFFFE00
FFFFFE00
FFFFFE00
FFFFFE00
FFFFFE00
0FF80000
0FF80000
0FF80000
0FF80000
0FF80000
0FFFFFE0
7FFFFFE0
FFFFFFE0
FFFFFFE0
FFFFFFE0
FFFFFFE0
FFFFFFE0
ENDCHAR
STARTCHAR C0164
ENCODING 164
SWIDTH 687 0
DWIDTH 33 0
BBX 30 34 2 0
BITMAP
0003FC00
001FFF80
003FFFE0
00FFFFF0
01FFFFF8
03FFFFFC
03FFFFF8
07FFFFF0
07FF07E0
0FFC0380
0FF80100
FFFFF800
FFFFF800
FFFFF800
FFFFF800
FFFFF800
1FF00000
1FF00000
FFFFF800
FFFFF800
FFFFF800
FFFFF800
FFFFF800
0FF80080
0FFC03C0
07FF07E0
07FFFFF0
03FFFFF8
03FFFFFC
01FFFFF8
00FFFFF0
007FFFE0
001FFF80
0003FC00
ENDCHAR
STARTCHAR C0165
ENCODING 165
SWIDTH 708 0
DWIDTH 34 0
BBX 33 34 0 0
BITMAP
FFE001FF80
7FE003FF00
7FF007FF00
3FF007FE00
1FF80FFC00
1FF80FFC00
0FFC1FF800
07FE1FF000
07FE3FF000
03FF3FE000
01FF7FC000
01FFFFC000
00FFFF8000
007FFF0000
007FFF0000
1FFFFFFC00
1FFFFFFC00
1FFFFFFC00
1FFFFFFC00
1FFFFFFC00
1FFFFFFC00
000FF80000
000FF80000
000FF80000
1FFFFFFC00
1FFFFFFC00
1FFFFFFC00
1FFFFFFC00
1FFFFFFC00
1FFFFFFC00
000FF80000
000FF80000
000FF80000
000FF80000
ENDCHAR
STARTCHAR C0166
ENCODING 166
SWIDTH 500 0
DWIDTH 24 0
BBX 1 1 0 -1
BITMAP
00
ENDCHAR
STARTCHAR C0167
ENCODING 167
SWIDTH 625 0
DWIDTH 30 0
BBX 26 34 2 0
BITMAP
007FC000
03FFF000
07FFFC00
0FFFFF00
1FFFFF80
3FFFFF00
3FFFFE00
3FE0FC00
3FC01C00
3FF00800
1FFF0000
0FFFF000
0FFFFC00
3FFFFF00
7FFFFF80
FE03FFC0
FE003FC0
FF001FC0
FFC01FC0
7FFE3F80
3FFFFF00
0FFFFC00
03FFFC00
003FFE00
0403FF00
0E00FF00
0FC1FF00
1FFFFF00
3FFFFF00
3FFFFE00
7FFFFC00
0FFFF800
03FFF000
00FF8000
ENDCHAR
STARTCHAR C0168
ENCODING 168
SWIDTH 500 0
DWIDTH 24 0
BBX 18 7 3 28
BITMAP
FF3FC0
FF3FC0
FF3FC0
FF3FC0
FF3FC0
FF3FC0
FF3FC0
ENDCHAR
STARTCHAR C0169
ENCODING 169
SWIDTH 833 0
DWIDTH 40 0
BBX 34 34 3 0
BITMAP
0007F80000
003FFF0000
00F807C000
01C000E000
0780007800
0E00001C00
0C00000C00
1800000600
3803F80700
300FFE0300
601FFF0180
603FFF8180
607FFF8180
C07E1E00C0
C0FC0400C0
C0F80000C0
C0F80000C0
C0F80000C0
C0F80000C0
C0F80000C0
C0FC0400C0
607E1F0180
607FFF8180
603FFF8180
301FFF0300
380FFE0700
1803F80600
0C00000C00
0E00001C00
0780007800
01C000E000
00F807C000
003FFF0000
0007F80000
ENDCHAR
STARTCHAR C0170
ENCODING 170
SWIDTH 395 0
DWIDTH 19 0
BBX 14 21 2 13
BITMAP
1FC0
7FF0
3FF8
3FFC
20FC
007C
1FFC
7FFC
F87C
F87C
F87C
F8FC
FFFC
7FFC
3F7C
0000
0000
FFFC
FFFC
FFFC
FFFC
ENDCHAR
STARTCHAR C0171
ENCODING 171
SWIDTH 625 0
DWIDTH 30 0
BBX 28 23 1 1
BITMAP
00800400
01E00F00
03F81FC0
03FE1FF0
07FC3FE0
0FF87FC0
1FF0FF80
1FE0FF80
3FE1FF00
7FC3FE00
FF87FC00
FF07FC00
FF87FC00
7FC3FE00
3FE1FF00
1FE0FF80
1FF0FF80
0FF87FC0
07FC3FE0
03FE1FF0
03F81FC0
01E00F00
00800400
ENDCHAR
STARTCHAR C0172
ENCODING 172
SWIDTH 500 0
DWIDTH 24 0
BBX 1 1 0 -1
BITMAP
00
ENDCHAR
STARTCHAR C0173
ENCODING 173
SWIDTH 416 0
DWIDTH 20 0
BBX 16 8 2 11
BITMAP
FFFF
FFFF
FFFF
FFFF
FFFF
FFFF
FFFF
FFFF
ENDCHAR
STARTCHAR C0174
ENCODING 174
SWIDTH 833 0
DWIDTH 40 0
BBX 34 34 3 0
BITMAP
0007F80000
003FFF0000
00F807C000
01C000E000
0780007800
0E00001C00
0C00000C00
1800000600
387FFC0700
307FFF0300
607FFF8180
607FFFC180
607C0FC180
C07C07C0C0
C07C07C0C0
C07C07C0C0
C07FFFC0C0
C07FFF80C0
C07FFF00C0
C07FFC00C0
C07C7E00C0
607C7F0180
607C3F0180
607C1F8180
307C1FC300
387C0FC700
1800000600
0C00000C00
0E00001C00
0780007800
01C000E000
00F807C000
003FFF0000
0007F80000
ENDCHAR
STARTCHAR C0175
ENCODING 175
SWIDTH 500 0
DWIDTH 24 0
BBX 18 6 3 28
BITMAP
FFFFC0
FFFFC0
FFFFC0
FFFFC0
FFFFC0
FFFFC0
ENDCHAR
STARTCHAR C0176
ENCODING 176
SWIDTH 479 0
DWIDTH 23 0
BBX 17 17 3 17
BITMAP
03E000
0FF800
1FFC00
3FFE00
7E3F00
7C1F00
F80F80
F80F80
F80F80
F80F80
F80F80
7C1F00
7E3F00
3FFE00
1FFE00
0FF800
03E000
ENDCHAR
STARTCHAR C0177
ENCODING 177
SWIDTH 625 0
DWIDTH 30 0
BBX 27 34 1 0
BITMAP
003FE000
01FFFC00
07FFFF00
0FFFFF80
1FFFFFC0
3FFFFFC0
7FFFFFE0
1FFFFFE0
0FE0FFE0
07803FE0
03003FE0
02003FE0
00003FC0
0000FFC0
003FFF80
003FFF00
003FFE00
003FFE00
003FFF80
003FFFC0
003FFFC0
00007FE0
04003FE0
0E003FE0
1F003FE0
3FC0FFE0
7FFFFFE0
FFFFFFC0
FFFFFFC0
7FFFFF80
3FFFFF00
0FFFFE00
03FFF800
007FE000
ENDCHAR
STARTCHAR C0178
ENCODING 178
SWIDTH 500 0
DWIDTH 24 0
BBX 1 1 0 -1
BITMAP
00
ENDCHAR
STARTCHAR C0179
ENCODING 179
SWIDTH 500 0
DWIDTH 24 0
BBX 1 1 0 -1
BITMAP
00
ENDCHAR
STARTCHAR C0180
ENCODING 180
SWIDTH 500 0
DWIDTH 24 0
BBX 14 9 6 28
BITMAP
0600
0FC0
0FF8
1FFC
1FF0
3FE0
3FC0
7F00
FE00
ENDCHAR
STARTCHAR C0181
ENCODING 181
SWIDTH 833 0
DWIDTH 40 0
BBX 40 38 2 -4
BITMAP
0003FE0000
003FFFC000
00FFFFF000
01FFFFF800
03FFFFFC00
07FFFFFE00
0FFFFFFF00
1FFFFFFF80
3FFE07FFC0
3FF803FFC0
7FF000FFE0
7FF000FFE0
7FE0007FE0
FFE0007FF0
FFC0003FF0
FFC0003FF0
FFC0003FF0
FFC0003FF0
FFC0003FF0
FFC0003FF0
FFE0007FF0
7FE0007FE0
7FF000FFE0
7FF000FFE0
3FFC01FFC0
3FFE07FFC0
1FFFFFFF80
0FFFFFFF80
07FFFFFF00
03FFFFFF00
01FFFFFF80
00FFFFFFC0
003FFFFFE0
0007FDFFF0
000000FFF8
0000007FFC
0000003FFE
0000001FFF
ENDCHAR
STARTCHAR C0182
ENCODING 182
SWIDTH 604 0
DWIDTH 29 0
BBX 25 34 1 0
BITMAP
007FFF80
03FFFF80
0FFFFF80
1FFFFF80
3FFFFF80
7FFFFF80
7FFFFF80
FFFFFF80
FFFFFF80
FFFFFF80
FFFFFF80
FFFFFF80
FFFFFF80
FFFFFF80
FFFFFF80
FFFFFF80
7FFFFF80
7FFFFF80
3FFFFF80
1FFFFF80
0FFFFF80
03FFFF80
00FFFF80
0001FF80
0001FF80
0001FF80
0001FF80
0001FF80
0001FF80
0001FF80
0001FF80
0001FF80
0001FF80
0001FF80
ENDCHAR
STARTCHAR C0183
ENCODING 183
SWIDTH 291 0
DWIDTH 14 0
BBX 10 9 2 10
BITMAP
FFC0
FFC0
FFC0
FFC0
FFC0
FFC0
FFC0
FFC0
FFC0
ENDCHAR
STARTCHAR C0184
ENCODING 184
SWIDTH 500 0
DWIDTH 24 0
BBX 11 9 5 -8
BITMAP
0FE0
0FC0
1FC0
3F80
7F80
7F80
BF00
0F00
0300
ENDCHAR
STARTCHAR C0185
ENCODING 185
SWIDTH 500 0
DWIDTH 24 0
BBX 1 1 0 -1
BITMAP
00
ENDCHAR
STARTCHAR C0186
ENCODING 186
SWIDTH 395 0
DWIDTH 19 0
BBX 15 21 2 13
BITMAP
07C0
1FF0
3FF8
7FFC
7C7C
F83E
F83E
F83E
F83E
F83E
7C7C
7FFC
3FF8
1FF0
07C0
0000
0000
FFFC
FFFC
FFFC
FFFC
ENDCHAR
STARTCHAR C0187
ENCODING 187
SWIDTH 625 0
DWIDTH 30 0
BBX 28 23 1 1
BITMAP
02001800
0F007800
3F81FC00
FFC3FE00
7FC1FF00
3FE1FF00
1FF0FF80
0FF87FC0
0FF83FC0
07FC3FE0
03FE1FF0
01FE0FF0
03FE1FF0
07FC3FE0
0FF83FC0
0FF87FC0
1FF0FF80
3FE1FF00
7FC1FF00
7FC3FE00
BF81FC00
0F007800
02001800
ENDCHAR
STARTCHAR C0188
ENCODING 188
SWIDTH 500 0
DWIDTH 24 0
BBX 1 1 0 -1
BITMAP
00
ENDCHAR
STARTCHAR C0189
ENCODING 189
SWIDTH 500 0
DWIDTH 24 0
BBX 1 1 0 -1
BITMAP
00
ENDCHAR
STARTCHAR C0190
ENCODING 190
SWIDTH 500 0
DWIDTH 24 0
BBX 1 1 0 -1
BITMAP
00
ENDCHAR
STARTCHAR C0191
ENCODING 191
SWIDTH 541 0
DWIDTH 26 0
BBX 24 34 1 0
BITMAP
00FFC0
00FFC0
00FFC0
00FFC0
00FFC0
00FFC0
00FFC0
00FFC0
000000
000000
000000
003F00
003F00
007F00
00FF00
07FF00
0FFF80
3FFF80
3FFF80
7FFF00
7FE000
FFC000
FF8000
FF8010
FF8078
FFC1FC
FFFFFC
7FFFFE
7FFFFF
3FFFFF
3FFFFE
0FFFF8
07FFE0
00FF80
ENDCHAR
STARTCHAR C0192
ENCODING 192
SWIDTH 791 0
DWIDTH 38 0
BBX 38 45 0 0
BITMAP
0000C00000
0007E00000
003FE00000
007FF00000
001FF00000
0007F80000
0003FC0000
0001FC0000
0000FE0000
0000000000
0000000000
0003FF0000
0003FF0000
0003FF8000
0007FF8000
0007FF8000
000FFFC000
000FFFC000
001FFFE000
001FFFE000
001FFFF000
003FFFF000
003FFFF000
007FCFF800
007FCFF800
00FFCFFC00
00FF87FC00
00FF87FE00
01FF03FE00
01FF03FE00
03FF03FF00
03FE01FF00
03FFFFFF80
07FFFFFF80
07FFFFFF80
0FFFFFFFC0
0FFFFFFFC0
1FFFFFFFE0
1FFFFFFFE0
1FF0003FF0
3FF0003FF0
3FE0003FF0
7FE0001FF8
7FE0001FF8
FFC0000FFC
ENDCHAR
STARTCHAR C0193
ENCODING 193
SWIDTH 791 0
DWIDTH 38 0
BBX 38 45 0 0
BITMAP
00000C0000
00001F8000
00001FF000
00003FF800
00003FE000
00007FC000
00007F8000
0000FE0000
0000FC0000
0001000000
0000000000
0003FF0000
0003FF0000
0003FF8000
0007FF8000
0007FF8000
000FFFC000
000FFFC000
001FFFE000
001FFFE000
001FFFF000
003FFFF000
003FFFF000
007FCFF800
007FCFF800
00FFCFFC00
00FF87FC00
00FF87FE00
01FF03FE00
01FF03FE00
03FF03FF00
03FE01FF00
03FFFFFF80
07FFFFFF80
07FFFFFF80
0FFFFFFFC0
0FFFFFFFC0
1FFFFFFFE0
1FFFFFFFE0
1FF0003FF0
3FF0003FF0
3FE0003FF0
7FE0001FF8
7FE0001FF8
FFC0000FFC
ENDCHAR
STARTCHAR C0194
ENCODING 194
SWIDTH 791 0
DWIDTH 38 0
BBX 38 44 0 0
BITMAP
0001FE0000
0003FF0000
0007FF8000
0007FF8000
000FFFC000
001FCFE000
003F87F000
003F03F800
0040000000
0000000000
0003FF0000
0003FF0000
0003FF8000
0007FF8000
0007FF8000
000FFFC000
000FFFC000
001FFFE000
001FFFE000
001FFFF000
003FFFF000
003FFFF000
007FFFF800
007FCFF800
00FFCFFC00
00FF87FC00
00FF87FE00
01FF87FE00
01FF03FE00
03FF03FF00
03FE01FF00
03FFFFFF80
07FFFFFF80
07FFFFFF80
0FFFFFFFC0
0FFFFFFFC0
1FFFFFFFE0
1FFFFFFFE0
1FF0003FF0
3FF0003FF0
3FE0003FF0
7FE0001FF8
7FE0001FF8
FFC0000FFC
ENDCHAR
STARTCHAR C0195
ENCODING 195
SWIDTH 791 0
DWIDTH 38 0
BBX 38 44 0 0
BITMAP
0007804000
001FE0F800
001FF8F800
003FFFF800
003FFFF800
003FFFF000
007FFFF000
007C7FE000
001C1FE000
0000078000
0003FF0000
0003FF0000
0003FF8000
0007FF8000
0007FF8000
000FFFC000
000FFFC000
001FFFE000
001FFFE000
001FFFF000
003FFFF000
003FFFF000
007FFFF800
007FCFF800
00FFCFFC00
00FF87FC00
00FF87FE00
01FF87FE00
01FF03FE00
03FF03FF00
03FE01FF00
03FFFFFF80
07FFFFFF80
07FFFFFF80
0FFFFFFFC0
0FFFFFFFC0
1FFFFFFFE0
1FFFFFFFE0
1FF0003FF0
3FF0003FF0
3FE0003FF0
7FE0001FF8
7FE0001FF8
FFC0000FFC
ENDCHAR
STARTCHAR C0196
ENCODING 196
SWIDTH 791 0
DWIDTH 38 0
BBX 38 43 0 0
BITMAP
003FCFF000
003FCFF000
003FCFF000
003FCFF000
003FCFF000
003FCFF000
003FCFF000
0000000000
0000000000
0003FF0000
0003FF0000
0007FF8000
0007FF8000
0007FF8000
000FFFC000
000FFFC000
001FFFE000
001FFFE000
001FFFE000
003FFFF000
003FFFF000
007FFFF800
007FCFF800
00FFCFFC00
00FF8FFC00
00FF87FC00
01FF87FE00
01FF07FE00
03FF03FF00
03FF03FF00
07FFFFFF80
07FFFFFF80
07FFFFFF80
0FFFFFFFC0
0FFFFFFFC0
1FFFFFFFE0
1FFFFFFFE0
1FF0003FE0
3FF0003FF0
3FE0003FF0
7FE0001FF8
7FE0001FF8
FFC0000FFC
ENDCHAR
STARTCHAR C0197
ENCODING 197
SWIDTH 791 0
DWIDTH 38 0
BBX 36 43 1 0
BITMAP
0000F00000
0003FC0000
0007FE0000
00070E0000
000E070000
000E070000
000E070000
000E070000
00070E0000
0007FE0000
0007FE0000
0007FE0000
000FFF0000
000FFF0000
000FFF0000
001FFF8000
001FFF8000
003FFFC000
003FFFC000
003FFFE000
007FFFE000
007FFFE000
00FF9FF000
00FF9FF000
01FF1FF800
01FF0FF800
01FF0FFC00
03FE07FC00
03FE07FC00
07FE07FE00
07FFFFFE00
07FFFFFF00
0FFFFFFF00
0FFFFFFF00
1FFFFFFF80
1FFFFFFF80
3FFFFFFFC0
3FF000FFC0
3FE0007FE0
7FE0007FE0
7FE0007FE0
FFC0003FF0
FFC0003FF0
ENDCHAR
STARTCHAR C0198
ENCODING 198
SWIDTH 1062 0
DWIDTH 51 0
BBX 49 34 0 0
BITMAP
00007FFFFFFF80
00007FFFFFFF80
0000FFFFFFFF80
0000FFFFFFFF80
0001FFFFFFFF80
0001FFFFFFFF80
0003FFFFFFFF80
0007FFFFFFFF80
0007FDFF000000
000FFDFF000000
000FF9FF000000
001FF9FF000000
001FF1FF000000
003FF1FF000000
003FE1FFFFFE00
007FE1FFFFFE00
007FC1FFFFFE00
00FFC1FFFFFE00
00FF81FFFFFE00
01FF81FFFFFE00
01FF01FFFFFE00
03FFFFFF000000
03FFFFFF000000
07FFFFFF000000
07FFFFFF000000
0FFFFFFF000000
0FFFFFFFFFFF80
1FFFFFFFFFFF80
3FF001FFFFFF80
3FE001FFFFFF80
7FE001FFFFFF80
7FC001FFFFFF80
FFC001FFFFFF80
FF8001FFFFFF80
ENDCHAR
STARTCHAR C0199
ENCODING 199
SWIDTH 729 0
DWIDTH 35 0
BBX 33 42 2 -8
BITMAP
0003FE0000
001FFFC000
007FFFF000
01FFFFF800
03FFFFFC00
07FFFFFE00
0FFFFFFF00
1FFFFFFE00
3FFE07FC00
3FF801F800
7FF000E000
7FF0004000
7FE0000000
FFE0000000
FFC0000000
FFC0000000
FFC0000000
FFC0000000
FFC0000000
FFC0000000
FFE0000000
FFE0000000
7FF0006000
7FF000F000
3FFC01F800
3FFE07FE00
1FFFFFFF00
1FFFFFFF80
0FFFFFFE00
07FFFFFC00
03FFFFF800
00FFFFF000
007FFFC000
000FFF0000
0007E00000
000FE00000
001FE00000
001FC00000
003FC00000
001FC00000
0007800000
0000800000
ENDCHAR
STARTCHAR C0200
ENCODING 200
SWIDTH 666 0
DWIDTH 32 0
BBX 27 45 3 0
BITMAP
000C0000
007C0000
03FE0000
07FE0000
01FF0000
00FF0000
007F8000
003FC000
001FC000
00000000
00000000
FFFFFFE0
FFFFFFE0
FFFFFFE0
FFFFFFE0
FFFFFFE0
FFFFFFE0
FFFFFFE0
FFFFFFE0
FFFFC000
FF800000
FF800000
FF800000
FF800000
FF800000
FFFFFF80
FFFFFF80
FFFFFF80
FFFFFF80
FFFFFF80
FFFFFF80
FFFFFF80
FF800000
FF800000
FF800000
FF800000
FF800000
FFFFFFE0
FFFFFFE0
FFFFFFE0
FFFFFFE0
FFFFFFE0
FFFFFFE0
FFFFFFE0
FFFFFFE0
ENDCHAR
STARTCHAR C0201
ENCODING 201
SWIDTH 666 0
DWIDTH 32 0
BBX 27 45 3 0
BITMAP
00020000
0007E000
0007FC00
000FFC00
001FF000
001FE000
003FC000
003F8000
007F0000
00000000
00000000
FFFFFFE0
FFFFFFE0
FFFFFFE0
FFFFFFE0
FFFFFFE0
FFFFFFE0
FFFFFFE0
FFFFFFE0
FFFFC000
FF800000
FF800000
FF800000
FF800000
FF800000
FFFFFF80
FFFFFF80
FFFFFF80
FFFFFF80
FFFFFF80
FFFFFF80
FFFFFF80
FF800000
FF800000
FF800000
FF800000
FF800000
FFFFFFE0
FFFFFFE0
FFFFFFE0
FFFFFFE0
FFFFFFE0
FFFFFFE0
FFFFFFE0
FFFFFFE0
ENDCHAR
STARTCHAR C0202
ENCODING 202
SWIDTH 666 0
DWIDTH 32 0
BBX 27 44 3 0
BITMAP
007FC000
007FC000
00FFE000
01FFF000
03FFF800
03FBF800
07E1FC00
0FC07E00
00000000
00000000
FFFFFFE0
FFFFFFE0
FFFFFFE0
FFFFFFE0
FFFFFFE0
FFFFFFE0
FFFFFFE0
FFFFFFE0
FF800000
FF800000
FF800000
FF800000
FF800000
FF800000
FFFFFF80
FFFFFF80
FFFFFF80
FFFFFF80
FFFFFF80
FFFFFF80
FFFFFF80
FF800000
FF800000
FF800000
FF800000
FF800000
FFFFFFE0
FFFFFFE0
FFFFFFE0
FFFFFFE0
FFFFFFE0
FFFFFFE0
FFFFFFE0
FFFFFFE0
ENDCHAR
STARTCHAR C0203
ENCODING 203
SWIDTH 666 0
DWIDTH 32 0
BBX 27 43 3 0
BITMAP
0FF1FE00
0FF1FE00
0FF1FE00
0FF1FE00
0FF1FE00
0FF1FE00
0FF1FE00
00000000
00000000
FFFFFFE0
FFFFFFE0
FFFFFFE0
FFFFFFE0
FFFFFFE0
FFFFFFE0
FFFFFFE0
FFFFFFE0
FF800000
FF800000
FF800000
FF800000
FF800000
FF800000
FFFFFF80
FFFFFF80
FFFFFF80
FFFFFF80
FFFFFF80
FFFFFF80
FFFFFF80
FF800000
FF800000
FF800000
FF800000
FF800000
FFFFFFE0
FFFFFFE0
FFFFFFE0
FFFFFFE0
FFFFFFE0
FFFFFFE0
FFFFFFE0
FFFFFFE0
ENDCHAR
STARTCHAR C0204
ENCODING 204
SWIDTH 333 0
DWIDTH 16 0
BBX 15 45 -2 0
BITMAP
0180
0FC0
7FC0
FFE0
3FE0
0FF0
07F8
03F8
01FC
0000
0000
07FE
07FE
07FE
07FE
07FE
07FE
07FE
07FE
07FE
07FE
07FE
07FE
07FE
07FE
07FE
07FE
07FE
07FE
07FE
07FE
07FE
07FE
07FE
07FE
07FE
07FE
07FE
07FE
07FE
07FE
07FE
07FE
07FE
07FE
ENDCHAR
STARTCHAR C0205
ENCODING 205
SWIDTH 333 0
DWIDTH 16 0
BBX 15 45 3 0
BITMAP
0300
07E0
07FC
0FFE
0FF8
1FE0
3FC0
3F80
7F00
0000
0000
FFC0
FFC0
FFC0
FFC0
FFC0
FFC0
FFC0
FFC0
FFC0
FFC0
FFC0
FFC0
FFC0
FFC0
FFC0
FFC0
FFC0
FFC0
FFC0
FFC0
FFC0
FFC0
FFC0
FFC0
FFC0
FFC0
FFC0
FFC0
FFC0
FFC0
FFC0
FFC0
FFC0
FFC0
ENDCHAR
STARTCHAR C0206
ENCODING 206
SWIDTH 333 0
DWIDTH 16 0
BBX 20 44 -2 0
BITMAP
03FC00
07FE00
0FFE00
1FFF00
1FFF80
3FBFC0
7F0FE0
FC07E0
000010
000000
07FE00
07FE00
07FE00
07FE00
07FE00
07FE00
07FE00
07FE00
07FE00
07FE00
07FE00
07FE00
07FE00
07FE00
07FE00
07FE00
07FE00
07FE00
07FE00
07FE00
07FE00
07FE00
07FE00
07FE00
07FE00
07FE00
07FE00
07FE00
07FE00
07FE00
07FE00
07FE00
07FE00
07FE00
ENDCHAR
STARTCHAR C0207
ENCODING 207
SWIDTH 333 0
DWIDTH 16 0
BBX 18 43 -1 0
BITMAP
FFBFC0
FFBFC0
FFBFC0
FFBFC0
FFBFC0
FFBFC0
FFBFC0
000000
000000
0FFC00
0FFC00
0FFC00
0FFC00
0FFC00
0FFC00
0FFC00
0FFC00
0FFC00
0FFC00
0FFC00
0FFC00
0FFC00
0FFC00
0FFC00
0FFC00
0FFC00
0FFC00
0FFC00
0FFC00
0FFC00
0FFC00
0FFC00
0FFC00
0FFC00
0FFC00
0FFC00
0FFC00
0FFC00
0FFC00
0FFC00
0FFC00
0FFC00
0FFC00
ENDCHAR
STARTCHAR C0208
ENCODING 208
SWIDTH 812 0
DWIDTH 39 0
BBX 36 34 1 0
BITMAP
0FFFFC0000
0FFFFFC000
0FFFFFF000
0FFFFFFC00
0FFFFFFE00
0FFFFFFF00
0FFFFFFF80
0FFFFFFF80
0FF80FFFC0
0FF801FFE0
0FF800FFE0
0FF8007FE0
0FF8007FF0
0FF8003FF0
FFFFE03FF0
FFFFE03FF0
FFFFE03FF0
FFFFE03FF0
FFFFE03FF0
FFFFE03FF0
FFFFE03FF0
0FF8007FE0
0FF8007FE0
0FF800FFE0
0FF801FFC0
0FF80FFFC0
0FFFFFFF80
0FFFFFFF00
0FFFFFFF00
0FFFFFFE00
0FFFFFF800
0FFFFFF000
0FFFFF8000
0FFFFC0000
ENDCHAR
STARTCHAR C0209
ENCODING 209
SWIDTH 791 0
DWIDTH 38 0
BBX 32 44 3 0
BITMAP
007C0600
00FF07C0
00FFCFC0
01FFFFC0
01FFFF80
03FFFF80
03FFFF80
03E3FF00
01C0FE00
00003C00
FF8001FF
FFC001FF
FFE001FF
FFF001FF
FFF001FF
FFF801FF
FFFC01FF
FFFE01FF
FFFE01FF
FFFF01FF
FFFF81FF
FFFFC1FF
FFFFE1FF
FFFFE1FF
FFFFF1FF
FFFFF9FF
FFBFFDFF
FFBFFDFF
FF9FFFFF
FF8FFFFF
FF87FFFF
FF83FFFF
FF83FFFF
FF81FFFF
FF80FFFF
FF807FFF
FF803FFF
FF803FFF
FF801FFF
FF800FFF
FF8007FF
FF8003FF
FF8003FF
FF8001FF
ENDCHAR
STARTCHAR C0210
ENCODING 210
SWIDTH 833 0
DWIDTH 40 0
BBX 36 45 2 0
BITMAP
0001800000
000F800000
007FC00000
00FFC00000
003FE00000
001FE00000
000FF00000
0003F80000
0001F80000
0000000000
0000000000
0003FE0000
003FFFC000
00FFFFF000
01FFFFF800
03FFFFFC00
07FFFFFE00
0FFFFFFF00
1FFFFFFF80
3FFE07FFC0
3FF803FFC0
7FF000FFE0
7FF000FFE0
7FE0007FE0
FFE0007FF0
FFC0003FF0
FFC0003FF0
FFC0003FF0
FFC0003FF0
FFC0003FF0
FFC0003FF0
FFE0007FF0
7FE0007FE0
7FF000FFE0
7FF000FFE0
3FFC01FFC0
3FFE07FFC0
1FFFFFFF80
0FFFFFFF00
07FFFFFE00
03FFFFFC00
01FFFFF800
00FFFFF000
003FFFC000
0007FC0000
ENDCHAR
STARTCHAR C0211
ENCODING 211
SWIDTH 833 0
DWIDTH 40 0
BBX 36 45 2 0
BITMAP
0000180000
00001F0000
00003FE000
00003FF000
00007FC000
00007F8000
0000FF0000
0000FE0000
0001F80000
0000000000
0000000000
0003FE0000
003FFFC000
00FFFFF000
01FFFFF800
03FFFFFC00
07FFFFFE00
0FFFFFFF00
1FFFFFFF80
3FFE07FFC0
3FF803FFC0
7FF000FFE0
7FF000FFE0
7FE0007FE0
FFE0007FF0
FFC0003FF0
FFC0003FF0
FFC0003FF0
FFC0003FF0
FFC0003FF0
FFC0003FF0
FFE0007FF0
7FE0007FE0
7FF000FFE0
7FF000FFE0
3FFC01FFC0
3FFE07FFC0
1FFFFFFF80
0FFFFFFF00
07FFFFFE00
03FFFFFC00
01FFFFF800
00FFFFF000
003FFFC000
0007FC0000
ENDCHAR
STARTCHAR C0212
ENCODING 212
SWIDTH 833 0
DWIDTH 40 0
BBX 36 44 2 0
BITMAP
0003FC0000
0007FE0000
0007FE0000
000FFF0000
001FFF8000
003F9FC000
003F0FC000
007E07E000
0000000000
0000000000
0003FE0000
003FFFC000
00FFFFF000
01FFFFF800
03FFFFFC00
07FFFFFE00
0FFFFFFF00
1FFFFFFF80
3FFE07FFC0
3FF803FFC0
7FF000FFE0
7FF000FFE0
7FE0007FE0
FFE0007FF0
FFC0003FF0
FFC0003FF0
FFC0003FF0
FFC0003FF0
FFC0003FF0
FFC0003FF0
FFE0007FF0
7FE0007FE0
7FF000FFE0
7FF000FFE0
3FFC01FFC0
3FFE07FFC0
1FFFFFFF80
0FFFFFFF00
07FFFFFE00
03FFFFFC00
01FFFFF800
00FFFFF000
003FFFC000
0007FC0000
ENDCHAR
STARTCHAR C0213
ENCODING 213
SWIDTH 833 0
DWIDTH 40 0
BBX 36 44 2 0
BITMAP
000F008000
003FC1F000
003FF1F000
007FFFF000
007FFFE000
00FFFFE000
00FFFFE000
00F8FFC000
00383FC000
00000F0000
0003FE0000
003FFFC000
00FFFFF000
01FFFFF800
03FFFFFC00
07FFFFFE00
0FFFFFFF00
1FFFFFFF80
3FFE07FFC0
3FF803FFC0
7FF000FFE0
7FF000FFE0
7FE0007FE0
FFE0007FF0
FFC0003FF0
FFC0003FF0
FFC0003FF0
FFC0003FF0
FFC0003FF0
FFC0003FF0
FFE0007FF0
7FE0007FE0
7FF000FFE0
7FF000FFE0
3FFC01FFC0
3FFE07FFC0
1FFFFFFF80
0FFFFFFF00
07FFFFFE00
03FFFFFC00
01FFFFF800
00FFFFF000
003FFFC000
0007FC0000
ENDCHAR
STARTCHAR C0214
ENCODING 214
SWIDTH 833 0
DWIDTH 40 0
BBX 36 43 2 0
BITMAP
007F9FE000
007F9FE000
007F9FE000
007F9FE000
007F9FE000
007F9FE000
007F9FE000
0000000000
0000000000
0003FE0000
003FFFC000
00FFFFF000
01FFFFF800
03FFFFFC00
07FFFFFE00
0FFFFFFF00
1FFFFFFF80
3FFE07FFC0
3FF803FFC0
7FF000FFE0
7FF000FFE0
7FE0007FE0
FFE0007FF0
FFC0003FF0
FFC0003FF0
FFC0003FF0
FFC0003FF0
FFC0003FF0
FFC0003FF0
FFE0007FF0
7FE0007FE0
7FF000FFE0
7FF000FFE0
3FFC01FFC0
3FFE07FFC0
1FFFFFFF80
0FFFFFFF00
07FFFFFE00
03FFFFFC00
01FFFFF800
00FFFFF000
003FFFC000
0007FC0000
ENDCHAR
STARTCHAR C0215
ENCODING 215
SWIDTH 500 0
DWIDTH 24 0
BBX 1 1 0 -1
BITMAP
00
ENDCHAR
STARTCHAR C0216
ENCODING 216
SWIDTH 833 0
DWIDTH 40 0
BBX 36 34 2 0
BITMAP
0003FE07F0
003FFFCFE0
00FFFFFFE0
01FFFFFFC0
03FFFFFF80
07FFFFFF00
0FFFFFFF00
1FFFFFFF80
3FFE07FFC0
3FF807FFC0
7FF00FFFE0
7FE00FFFE0
7FE01FFFE0
FFC03FBFF0
FFC07F3FF0
FFC0FE3FF0
FFC1FC3FF0
FFC3F83FF0
FFC7F03FF0
FFCFE03FF0
FFDFC07FF0
7FDF807FE0
7FFF80FFE0
7FFF00FFE0
3FFE03FFC0
3FFE07FFC0
1FFFFFFF80
0FFFFFFF00
0FFFFFFE00
1FFFFFFC00
3FFFFFF800
3FFFFFF000
7F3FFFC000
FE07FC0000
ENDCHAR
STARTCHAR C0217
ENCODING 217
SWIDTH 750 0
DWIDTH 36 0
BBX 30 45 3 0
BITMAP
00040000
003E0000
01FE0000
03FF0000
00FF0000
007F8000
003F8000
001FC000
000FC000
00002000
00000000
FFC00FFC
FFC00FFC
FFC00FFC
FFC00FFC
FFC00FFC
FFC00FFC
FFC00FFC
FFC00FFC
FFC00FFC
FFC00FFC
FFC00FFC
FFC00FFC
FFC00FFC
FFC00FFC
FFC00FFC
FFC00FFC
FFC00FFC
FFC00FFC
FFC00FFC
FFC00FFC
FFC00FFC
FFC00FFC
FFC00FFC
FFE01FFC
7FF03FF8
7FF87FF8
7FFFFFF8
3FFFFFF0
1FFFFFE0
1FFFFFE0
0FFFFFC0
07FFFF00
01FFFE00
003FF000
ENDCHAR
STARTCHAR C0218
ENCODING 218
SWIDTH 750 0
DWIDTH 36 0
BBX 30 45 3 0
BITMAP
00008000
0001F000
0001FE00
0003FF00
0003FC00
0007F800
0007F000
000FE000
000FC000
00100000
00000000
FFC00FFC
FFC00FFC
FFC00FFC
FFC00FFC
FFC00FFC
FFC00FFC
FFC00FFC
FFC00FFC
FFC00FFC
FFC00FFC
FFC00FFC
FFC00FFC
FFC00FFC
FFC00FFC
FFC00FFC
FFC00FFC
FFC00FFC
FFC00FFC
FFC00FFC
FFC00FFC
FFC00FFC
FFC00FFC
FFC00FFC
FFE01FFC
7FF03FF8
7FF87FF8
7FFFFFF8
3FFFFFF0
1FFFFFE0
1FFFFFE0
0FFFFFC0
07FFFF00
01FFFE00
003FF000
ENDCHAR
STARTCHAR C0219
ENCODING 219
SWIDTH 750 0
DWIDTH 36 0
BBX 30 44 3 0
BITMAP
001FE000
001FE000
003FF000
007FF800
00FFFC00
00FCFC00
01F87E00
03F03F00
00000000
00000000
FFC00FFC
FFC00FFC
FFC00FFC
FFC00FFC
FFC00FFC
FFC00FFC
FFC00FFC
FFC00FFC
FFC00FFC
FFC00FFC
FFC00FFC
FFC00FFC
FFC00FFC
FFC00FFC
FFC00FFC
FFC00FFC
FFC00FFC
FFC00FFC
FFC00FFC
FFC00FFC
FFC00FFC
FFC00FFC
FFC00FFC
FFE01FFC
7FF03FF8
7FF87FF8
7FFFFFF8
3FFFFFF0
1FFFFFE0
1FFFFFE0
0FFFFFC0
07FFFF00
01FFFE00
003FF000
ENDCHAR
STARTCHAR C0220
ENCODING 220
SWIDTH 750 0
DWIDTH 36 0
BBX 32 43 2 0
BITMAP
01FE7F80
01FE7F80
01FE7F80
01FE7F80
01FE7F80
01FE7F80
01FE7F80
00000000
00000000
FFC003FF
FFC003FF
FFC003FF
FFC003FF
FFC003FF
FFC003FF
FFC003FF
FFC003FF
FFC003FF
FFC003FF
FFC003FF
FFC003FF
FFC003FF
FFC003FF
FFC003FF
FFC003FF
FFC003FF
FFC003FF
FFC003FF
FFC003FF
FFC003FF
FFC003FF
FFE007FF
FFE007FE
7FF00FFE
7FF81FFE
3FFFFFFC
3FFFFFFC
1FFFFFF8
1FFFFFF0
0FFFFFE0
03FFFFC0
00FFFF00
001FF800
ENDCHAR
STARTCHAR C0221
ENCODING 221
SWIDTH 729 0
DWIDTH 35 0
BBX 36 45 -1 0
BITMAP
0000100000
00003E0000
00007FE000
00007FE000
0000FF8000
0000FF0000
0001FE0000
0001FC0000
0003F80000
0000000000
0000000000
FFE0007FF0
7FF000FFE0
3FF000FFC0
3FF801FFC0
1FF801FF80
0FFC03FF80
0FFE03FF00
07FE07FE00
07FF0FFE00
03FF0FFC00
01FF9FF800
01FFDFF800
00FFFFF000
00FFFFF000
007FFFE000
003FFFC000
003FFFC000
001FFF8000
001FFF8000
000FFF0000
0007FE0000
0007FE0000
0007FE0000
0007FE0000
0007FE0000
0007FE0000
0007FE0000
0007FE0000
0007FE0000
0007FE0000
0007FE0000
0007FE0000
0007FE0000
0007FE0000
ENDCHAR
STARTCHAR C0222
ENCODING 222
SWIDTH 687 0
DWIDTH 33 0
BBX 29 34 3 0
BITMAP
FF800000
FF800000
FF800000
FF800000
FF800000
FFFFE000
FFFFFC00
FFFFFF00
FFFFFFC0
FFFFFFE0
FFFFFFE0
FFFFFFF0
FFFFFFF0
FF807FF8
FF801FF8
FF800FF8
FF800FF8
FF800FF8
FF800FF8
FF800FF8
FF801FF8
FF807FF0
FFFFFFF0
FFFFFFE0
FFFFFFC0
FFFFFF80
FFFFFF00
FFFFFC00
FFFFE000
FF800000
FF800000
FF800000
FF800000
FF800000
ENDCHAR
STARTCHAR C0223
ENCODING 223
SWIDTH 625 0
DWIDTH 30 0
BBX 27 35 2 0
BITMAP
007FC000
03FFF800
07FFFC00
1FFFFE00
3FFFFF00
3FFFFF80
7FFFFF80
7FFFFFC0
FFE1FFC0
FFC07FC0
FF807FC0
FF807FC0
FF807FC0
FF80FF80
FF80FF80
FF83FF00
FF87FE00
FF87F800
FF87FE00
FF87FF00
FF87FF80
FF80FFC0
FF807FC0
FF803FE0
FF803FE0
FF803FE0
FF807FE0
FF81FFE0
FF87FFE0
FF87FFC0
FF87FFC0
FF87FF80
FF87FF00
FF87FC00
FF87E000
ENDCHAR
STARTCHAR C0224
ENCODING 224
SWIDTH 604 0
DWIDTH 29 0
BBX 26 37 1 0
BITMAP
00180000
00FC0000
07FC0000
0FFE0000
03FE0000
01FF0000
00FF8000
003F8000
001FC000
00000000
00000000
00FFC000
0FFFF800
1FFFFC00
1FFFFF00
0FFFFF00
0FFFFF80
0FFFFF80
0F01FFC0
00007FC0
03FE7FC0
0FFFFFC0
1FFFFFC0
3FFFFFC0
7FE0FFC0
FFC07FC0
FF807FC0
FF807FC0
FF807FC0
FF80FFC0
FFC1FFC0
FFFFFFC0
7FFFFFC0
7FFFFFC0
3FFF7FC0
1FFE7FC0
03F07FC0
ENDCHAR
STARTCHAR C0225
ENCODING 225
SWIDTH 604 0
DWIDTH 29 0
BBX 26 37 1 0
BITMAP
00030000
0003E000
0007FC00
0007FE00
000FF800
001FF000
001FE000
003FC000
003F8000
00400000
00000000
00FFC000
0FFFF800
1FFFFC00
1FFFFF00
0FFFFF00
0FFFFF80
0FFFFF80
0F01FFC0
00007FC0
03FE7FC0
0FFFFFC0
1FFFFFC0
3FFFFFC0
7FE0FFC0
FFC07FC0
FF807FC0
FF807FC0
FF807FC0
FF80FFC0
FFC1FFC0
FFFFFFC0
7FFFFFC0
7FFFFFC0
3FFF7FC0
1FFE7FC0
03F07FC0
ENDCHAR
STARTCHAR C0226
ENCODING 226
SWIDTH 604 0
DWIDTH 29 0
BBX 26 36 1 0
BITMAP
007FC000
00FFC000
00FFE000
01FFF000
03FFF800
07F3FC00
0FE0FE00
0F807E00
10000100
00000000
00FFC000
0FFFF800
1FFFFC00
1FFFFF00
0FFFFF00
0FFFFF80
0FFFFF80
0F01FFC0
0000FFC0
00007FC0
00007FC0
03FE7FC0
0FFFFFC0
3FFFFFC0
7FFFFFC0
7FE07FC0
FF807FC0
FF807FC0
FF80FFC0
FFC1FFC0
FFFFFFC0
7FFFFFC0
7FFFFFC0
3FFF7FC0
1FFE7FC0
07F07FC0
ENDCHAR
STARTCHAR C0227
ENCODING 227
SWIDTH 604 0
DWIDTH 29 0
BBX 26 37 1 0
BITMAP
00001800
01F01F00
07FE3F00
07FFFE00
0FFFFE00
0FFFFE00
1FFFFC00
1F0FFC00
0707F800
0000F000
00000000
00FFC000
0FFFF800
1FFFFC00
1FFFFF00
0FFFFF00
0FFFFF80
0FFFFF80
0F01FFC0
0000FFC0
00007FC0
00007FC0
03FE7FC0
0FFFFFC0
3FFFFFC0
7FFFFFC0
7FE07FC0
FF807FC0
FF807FC0
FF80FFC0
FFC1FFC0
FFFFFFC0
7FFFFFC0
7FFFFFC0
3FFF7FC0
1FFE7FC0
07F07FC0
ENDCHAR
STARTCHAR C0228
ENCODING 228
SWIDTH 604 0
DWIDTH 29 0
BBX 26 35 1 0
BITMAP
0FF1FE00
0FF1FE00
0FF1FE00
0FF1FE00
0FF1FE00
0FF1FE00
0FF1FE00
00000000
00000000
00FFC000
0FFFF800
1FFFFC00
1FFFFF00
0FFFFF00
0FFFFF80
0FFFFF80
0F01FFC0
0000FFC0
00007FC0
00007FC0
03FE7FC0
0FFFFFC0
3FFFFFC0
7FFFFFC0
7FE07FC0
FF807FC0
FF807FC0
FF80FFC0
FFC1FFC0
FFFFFFC0
7FFFFFC0
7FFFFFC0
3FFF7FC0
1FFE7FC0
07F87FC0
ENDCHAR
STARTCHAR C0229
ENCODING 229
SWIDTH 604 0
DWIDTH 29 0
BBX 26 41 1 0
BITMAP
001F0000
007FC000
00FFE000
00F1E000
01E0F000
01C07000
01C07000
01C07000
01E0F000
00F1E000
00FFE000
007FC000
001F0000
00000000
00000000
00FFC000
0FFFF800
1FFFFC00
1FFFFF00
0FFFFF00
0FFFFF80
0FFFFF80
0F01FFC0
0000FFC0
00007FC0
00007FC0
03FE7FC0
0FFFFFC0
3FFFFFC0
7FFFFFC0
7FE07FC0
FF807FC0
FF807FC0
FF80FFC0
FFC1FFC0
FFFFFFC0
7FFFFFC0
7FFFFFC0
3FFF7FC0
1FFE7FC0
07F07FC0
ENDCHAR
STARTCHAR C0230
ENCODING 230
SWIDTH 937 0
DWIDTH 45 0
BBX 43 26 1 0
BITMAP
01FF803FC000
0FFFF1FFF000
3FFFFBFFFC00
1FFFFFFFFE00
1FFFFFFFFF00
1FFFFFFFFF00
0FFFFFF1FF80
0E03FFE07F80
0000FFC07FC0
0000FF803FC0
0000FF803FC0
03FFFFFFFFC0
1FFFFFFFFFC0
3FFFFFFFFFE0
7FFFFFFFFFE0
7FC0FFFFFFC0
FF807F800800
FF807FC01C00
FF807FF07E00
FFC1FFFFFF00
FFFFFFFFFF80
7FFFFFFFFF80
7FFFFFFFFF00
3FFFC3FFFC00
1FFF01FFF800
03F8003FC000
ENDCHAR
STARTCHAR C0231
ENCODING 231
SWIDTH 562 0
DWIDTH 27 0
BBX 25 34 1 -8
BITMAP
003FC000
01FFF800
03FFFC00
0FFFFE00
1FFFFF00
1FFFFF80
3FFFFF80
7FFFFE00
7FF07C00
7FE03800
FFC02000
FF800000
FF800000
FF800000
FF800000
FF800000
FF800000
7FC02000
7FE03800
3FF07C00
3FFFFF00
1FFFFF80
0FFFFF80
07FFFF00
03FFFC00
00FFF800
007FC000
00FE0000
01FE0000
01FC0000
03FC0000
05FC0000
00780000
00080000
ENDCHAR
STARTCHAR C0232
ENCODING 232
SWIDTH 604 0
DWIDTH 29 0
BBX 27 37 1 0
BITMAP
00100000
00F80000
0FFC0000
0FFC0000
03FE0000
01FE0000
00FF0000
007F0000
003F8000
00000000
00000000
003FC000
01FFF000
03FFFC00
0FFFFE00
1FFFFF00
1FFFFF00
3FFFFF80
3FE0FF80
7FC07FC0
7FC03FC0
7F803FC0
FFFFFFC0
FFFFFFE0
FFFFFFE0
FFFFFFE0
7F803FE0
7FC00800
7FE01C00
7FF03E00
3FFFFF00
1FFFFFC0
1FFFFF80
0FFFFF00
03FFFE00
01FFF800
003FC000
ENDCHAR
STARTCHAR C0233
ENCODING 233
SWIDTH 604 0
DWIDTH 29 0
BBX 27 37 1 0
BITMAP
00010000
0003F000
0003FE00
0007FE00
000FF800
000FF000
001FE000
001FC000
003F8000
00000000
00000000
003FC000
01FFF000
03FFFC00
0FFFFE00
1FFFFF00
1FFFFF00
3FFFFF80
3FE0FF80
7FC07FC0
7FC03FC0
7F803FC0
FFFFFFC0
FFFFFFE0
FFFFFFE0
FFFFFFE0
7F803FE0
7FC00800
7FE01C00
7FF03E00
3FFFFF00
1FFFFFC0
1FFFFF80
0FFFFF00
03FFFE00
01FFF800
003FC000
ENDCHAR
STARTCHAR C0234
ENCODING 234
SWIDTH 604 0
DWIDTH 29 0
BBX 27 36 1 0
BITMAP
007FC000
007FC000
00FFE000
01FFF000
03FFF800
03FBFC00
07E0FC00
0FC07E00
00000000
00000000
003FC000
01FFF000
03FFFC00
0FFFFE00
1FFFFF00
1FFFFF00
3FFFFF80
3FE0FF80
7FC07FC0
7FC03FC0
7F803FC0
FFFFFFC0
FFFFFFE0
FFFFFFE0
FFFFFFE0
7FFFFFE0
7F800800
7FC01C00
7FF03E00
3FFFFF00
1FFFFFC0
1FFFFF80
0FFFFF00
03FFFE00
01FFF800
003FC000
ENDCHAR
STARTCHAR C0235
ENCODING 235
SWIDTH 604 0
DWIDTH 29 0
BBX 26 35 1 0
BITMAP
0FF1FE00
0FF1FE00
0FF1FE00
0FF1FE00
0FF1FE00
0FF1FE00
0FF1FE00
00000000
00000000
007F8000
01FFF000
07FFF800
0FFFFC00
1FFFFE00
3FFFFF00
3FFFFF80
7FE0FF80
7FC07F80
FFC03FC0
FF803FC0
FFFFFFC0
FFFFFFC0
FFFFFFC0
FFFFFFC0
FFFFFFC0
FF801000
7FC01C00
7FE07E00
3FFFFF00
3FFFFF80
1FFFFF00
0FFFFE00
07FFFC00
01FFF800
003FC000
ENDCHAR
STARTCHAR C0236
ENCODING 236
SWIDTH 291 0
DWIDTH 14 0
BBX 14 37 -2 0
BITMAP
0180
0F80
7FC0
FFC0
3FE0
1FE0
0FF0
07F0
03F8
0000
0000
07FC
07FC
07FC
07FC
07FC
07FC
07FC
07FC
07FC
07FC
07FC
07FC
07FC
07FC
07FC
07FC
07FC
07FC
07FC
07FC
07FC
07FC
07FC
07FC
07FC
07FC
ENDCHAR
STARTCHAR C0237
ENCODING 237
SWIDTH 291 0
DWIDTH 14 0
BBX 14 37 3 0
BITMAP
0200
07E0
0FFC
0FF8
1FF0
1FE0
3FC0
3F80
7F00
0000
0000
FF80
FF80
FF80
FF80
FF80
FF80
FF80
FF80
FF80
FF80
FF80
FF80
FF80
FF80
FF80
FF80
FF80
FF80
FF80
FF80
FF80
FF80
FF80
FF80
FF80
FF80
ENDCHAR
STARTCHAR C0238
ENCODING 238
SWIDTH 291 0
DWIDTH 14 0
BBX 20 36 -3 0
BITMAP
03FC00
07FE00
07FF00
0FFF80
1FFF80
3F9FC0
7F0FE0
7E03F0
800000
000000
03FE00
03FE00
03FE00
03FE00
03FE00
03FE00
03FE00
03FE00
03FE00
03FE00
03FE00
03FE00
03FE00
03FE00
03FE00
03FE00
03FE00
03FE00
03FE00
03FE00
03FE00
03FE00
03FE00
03FE00
03FE00
03FE00
ENDCHAR
STARTCHAR C0239
ENCODING 239
SWIDTH 291 0
DWIDTH 14 0
BBX 19 35 -2 0
BITMAP
FF1FE0
FF1FE0
FF1FE0
FF1FE0
FF1FE0
FF1FE0
FF1FE0
000000
000000
07FC00
07FC00
07FC00
07FC00
07FC00
07FC00
07FC00
07FC00
07FC00
07FC00
07FC00
07FC00
07FC00
07FC00
07FC00
07FC00
07FC00
07FC00
07FC00
07FC00
07FC00
07FC00
07FC00
07FC00
07FC00
07FC00
ENDCHAR
STARTCHAR C0240
ENCODING 240
SWIDTH 645 0
DWIDTH 31 0
BBX 27 35 2 0
BITMAP
01FF0C00
00FFFC00
00FFFE00
007FFF00
007FFE00
03FFF000
0FFFF000
07FFF000
03E7F800
0103FC00
0003FE00
01FDFE00
07FFFF00
0FFFFF80
1FFFFF80
3FFFFFC0
7FFFFFC0
7FFFFFC0
7FE0FFE0
FFC07FE0
FF803FE0
FF803FE0
FF803FE0
FF803FE0
FF803FE0
FFC07FE0
7FE0FFC0
7FFFFFC0
3FFFFF80
3FFFFF80
1FFFFF00
0FFFFE00
07FFFC00
01FFF000
007F8000
ENDCHAR
STARTCHAR C0241
ENCODING 241
SWIDTH 625 0
DWIDTH 30 0
BBX 26 37 2 0
BITMAP
00001800
01F01F00
07FE3F00
07FFFE00
0FFFFE00
0FFFFE00
1FFFFC00
1F0FFC00
0707F800
0000F000
00000000
FF83F000
FF8FFC00
FF9FFF00
FFBFFF00
FFFFFF80
FFFFFF80
FFFFFFC0
FFFFFFC0
FFE1FFC0
FFC0FFC0
FF807FC0
FF807FC0
FF807FC0
FF807FC0
FF807FC0
FF807FC0
FF807FC0
FF807FC0
FF807FC0
FF807FC0
FF807FC0
FF807FC0
FF807FC0
FF807FC0
FF807FC0
FF807FC0
ENDCHAR
STARTCHAR C0242
ENCODING 242
SWIDTH 645 0
DWIDTH 31 0
BBX 29 37 1 0
BITMAP
00180000
00FC0000
07FC0000
0FFE0000
03FF0000
00FF0000
007F8000
003F8000
001FC000
00000000
00000000
003FE000
00FFF800
03FFFE00
0FFFFF80
1FFFFFC0
1FFFFFC0
3FFFFFE0
7FFFFFF0
7FF07FF0
7FC03FF8
FFC01FF8
FF800FF8
FF800FF8
FF800FF8
FF800FF8
FFC01FF8
FFE01FF0
7FF07FF0
7FFFFFF0
3FFFFFE0
1FFFFFC0
1FFFFFC0
0FFFFF00
03FFFE00
00FFF800
003FE000
ENDCHAR
STARTCHAR C0243
ENCODING 243
SWIDTH 645 0
DWIDTH 31 0
BBX 29 37 1 0
BITMAP
0000C000
0001F800
0001FF00
0003FF80
0007FE00
0007F800
000FF000
000FE000
001FC000
00000000
00000000
003FE000
00FFF800
03FFFE00
0FFFFF80
1FFFFFC0
1FFFFFC0
3FFFFFE0
7FFFFFF0
7FF07FF0
7FC03FF8
FFC01FF8
FF800FF8
FF800FF8
FF800FF8
FF800FF8
FFC01FF8
FFE01FF0
7FF07FF0
7FFFFFF0
3FFFFFE0
1FFFFFC0
1FFFFFC0
0FFFFF00
03FFFE00
00FFF800
003FE000
ENDCHAR
STARTCHAR C0244
ENCODING 244
SWIDTH 645 0
DWIDTH 31 0
BBX 29 36 1 0
BITMAP
003FE000
003FE000
007FF000
00FFF800
01FFFC00
03FDFE00
03F07E00
07E03F00
00000000
00000000
003FE000
00FFF800
03FFFE00
0FFFFF80
1FFFFFC0
1FFFFFC0
3FFFFFE0
7FFFFFF0
7FF07FF0
7FC03FF8
FFC01FF8
FF800FF8
FF800FF8
FF800FF8
FF800FF8
FFC01FF8
FFE01FF0
7FF07FF0
7FFFFFF0
3FFFFFE0
1FFFFFC0
1FFFFFC0
0FFFFF00
03FFFE00
00FFF800
003FE000
ENDCHAR
STARTCHAR C0245
ENCODING 245
SWIDTH 645 0
DWIDTH 31 0
BBX 29 37 1 0
BITMAP
00000C00
00F81F00
01FF1F00
03FFFF00
03FFFF00
07FFFE00
07FFFE00
07C7FC00
0383FC00
0000F800
00000000
003FE000
00FFF800
03FFFE00
0FFFFF80
1FFFFFC0
1FFFFFC0
3FFFFFE0
7FFFFFF0
7FF07FF0
7FC03FF8
FFC01FF8
FF800FF8
FF800FF8
FF800FF8
FF800FF8
FFC01FF8
FFE01FF0
7FF07FF0
7FFFFFF0
3FFFFFE0
1FFFFFC0
1FFFFFC0
0FFFFF00
03FFFE00
00FFF800
003FE000
ENDCHAR
STARTCHAR C0246
ENCODING 246
SWIDTH 645 0
DWIDTH 31 0
BBX 29 35 1 0
BITMAP
07F8FF00
07F8FF00
07F8FF00
07F8FF00
07F8FF00
07F8FF00
07F8FF00
00000000
00000000
003FE000
00FFF800
03FFFE00
0FFFFF80
1FFFFFC0
1FFFFFC0
3FFFFFE0
7FFFFFF0
7FF07FF0
7FC03FF8
FFC01FF8
FF800FF8
FF800FF8
FF800FF8
FF800FF8
FFC01FF8
FFE01FF0
7FF07FF0
7FFFFFF0
3FFFFFE0
1FFFFFC0
1FFFFFC0
0FFFFF00
03FFFE00
00FFF800
003FE000
ENDCHAR
STARTCHAR C0247
ENCODING 247
SWIDTH 500 0
DWIDTH 24 0
BBX 1 1 0 -1
BITMAP
00
ENDCHAR
STARTCHAR C0248
ENCODING 248
SWIDTH 645 0
DWIDTH 31 0
BBX 31 26 0 0
BITMAP
001FF0FE
007FFFFC
01FFFFF8
07FFFFF0
0FFFFFE0
0FFFFFE0
1FFFFFF0
3FF83FF8
3FF07FF8
3FE0FFFC
7FC1FFFC
7FC3F7FC
7FC7E7FC
7FCFC7FC
7FDF87FC
7FFF07FC
7FFE0FF8
3FFC1FF8
3FFC3FF8
1FFFFFF0
0FFFFFE0
0FFFFFE0
1FFFFF80
3FFFFF00
7FFFFC00
FE1FF000
ENDCHAR
STARTCHAR C0249
ENCODING 249
SWIDTH 625 0
DWIDTH 30 0
BBX 26 37 2 0
BITMAP
00180000
00F80000
07FC0000
0FFC0000
03FE0000
01FF0000
00FF0000
007F8000
003F8000
00004000
00000000
FF807FC0
FF807FC0
FF807FC0
FF807FC0
FF807FC0
FF807FC0
FF807FC0
FF807FC0
FF807FC0
FF807FC0
FF807FC0
FF807FC0
FF807FC0
FF807FC0
FF807FC0
FF807FC0
FFC0FFC0
FFE1FFC0
FFFFFFC0
FFFFFFC0
7FFFFFC0
7FFFFFC0
3FFFFFC0
3FFE7FC0
0FFC7FC0
03F07FC0
ENDCHAR
STARTCHAR C0250
ENCODING 250
SWIDTH 625 0
DWIDTH 30 0
BBX 26 37 2 0
BITMAP
00060000
0007E000
000FFC00
000FFE00
001FF000
001FE000
003FC000
007F8000
007F0000
00000000
00000000
FF807FC0
FF807FC0
FF807FC0
FF807FC0
FF807FC0
FF807FC0
FF807FC0
FF807FC0
FF807FC0
FF807FC0
FF807FC0
FF807FC0
FF807FC0
FF807FC0
FF807FC0
FF807FC0
FFC0FFC0
FFE1FFC0
FFFFFFC0
FFFFFFC0
7FFFFFC0
7FFFFFC0
3FFFFFC0
3FFE7FC0
0FFC7FC0
03F07FC0
ENDCHAR
STARTCHAR C0251
ENCODING 251
SWIDTH 625 0
DWIDTH 30 0
BBX 26 36 2 0
BITMAP
007F8000
00FFC000
01FFE000
03FFF000
03FFF800
07F3F800
0FE1FC00
1F807E00
00000000
00000000
FF807FC0
FF807FC0
FF807FC0
FF807FC0
FF807FC0
FF807FC0
FF807FC0
FF807FC0
FF807FC0
FF807FC0
FF807FC0
FF807FC0
FF807FC0
FF807FC0
FF807FC0
FF807FC0
FFC0FFC0
FFE1FFC0
FFFFFFC0
FFFFFFC0
7FFFFFC0
7FFFFFC0
3FFFFFC0
3FFE7FC0
0FFC7FC0
03F07FC0
ENDCHAR
STARTCHAR C0252
ENCODING 252
SWIDTH 625 0
DWIDTH 30 0
BBX 26 35 2 0
BITMAP
0FF3FC00
0FF3FC00
0FF3FC00
0FF3FC00
0FF3FC00
0FF3FC00
0FF3FC00
00000000
00000000
FF807FC0
FF807FC0
FF807FC0
FF807FC0
FF807FC0
FF807FC0
FF807FC0
FF807FC0
FF807FC0
FF807FC0
FF807FC0
FF807FC0
FF807FC0
FF807FC0
FF807FC0
FF807FC0
FFC0FFC0
FFE1FFC0
FFFFFFC0
FFFFFFC0
7FFFFFC0
7FFFFFC0
3FFFFFC0
3FFE7FC0
1FFC7FC0
07F07FC0
ENDCHAR
STARTCHAR C0253
ENCODING 253
SWIDTH 625 0
DWIDTH 30 0
BBX 29 45 1 -8
BITMAP
00010000
0003F000
0007FE00
0007FC00
000FF800
000FF000
001FE000
001FC000
003F8000
00000000
00000000
FF801FF8
FFC01FF0
7FC03FF0
7FC03FE0
7FE03FE0
3FE07FC0
3FE07FC0
3FF07FC0
1FF07F80
1FF0FF80
0FF8FF80
0FF8FF00
0FF9FF00
07FDFE00
07FDFE00
03FFFE00
03FFFC00
03FFFC00
01FFFC00
01FFF800
00FFF800
00FFF800
00FFF000
007FF000
007FE000
003FE000
187FE000
1FFFC000
3FFFC000
3FFF8000
7FFF8000
7FFF0000
3FFE0000
07F80000
ENDCHAR
STARTCHAR C0254
ENCODING 254
SWIDTH 666 0
DWIDTH 32 0
BBX 29 43 2 -8
BITMAP
FF800000
FF800000
FF800000
FF800000
FF800000
FF800000
FF800000
FF800000
FF800000
FF83F800
FF8FFE00
FF9FFF00
FFBFFF80
FFFFFFC0
FFFFFFE0
FFFFFFF0
FFFFFFF0
FFF07FF0
FFC01FF8
FFC01FF8
FF800FF8
FF800FF8
FF800FF8
FF800FF8
FFC01FF8
FFC01FF8
FFF07FF0
FFFFFFF0
FFFFFFF0
FFFFFFE0
FFFFFFC0
FFFFFF80
FFBFFF00
FF8FFE00
FF83F800
FF800000
FF800000
FF800000
FF800000
FF800000
FF800000
FF800000
FF800000
ENDCHAR
STARTCHAR C0255
ENCODING 255
SWIDTH 625 0
DWIDTH 30 0
BBX 29 43 1 -8
BITMAP
07F9FE00
07F9FE00
07F9FE00
07F9FE00
07F9FE00
07F9FE00
07F9FE00
00000000
00000000
FF801FF8
FFC01FF0
7FC03FF0
7FC03FE0
7FE03FE0
3FE07FC0
3FE07FC0
3FF07FC0
1FF07F80
1FF0FF80
0FF8FF80
0FF8FF00
0FF9FF00
07FDFF00
07FDFE00
03FFFE00
03FFFC00
03FFFC00
01FFFC00
01FFF800
00FFF800
00FFF800
00FFF000
007FF000
007FE000
003FE000
187FE000
1FFFC000
3FFFC000
3FFF8000
7FFF8000
7FFF0000
3FFE0000
07F80000
ENDCHAR
ENDFONT
